<?xml version="1.0" encoding="utf-8"?>
<!-- Generator: Adobe Illustrator 23.0.1, SVG Export Plug-In . SVG Version: 6.00 Build 0)  -->
<svg version="1.1" id="Layer_1" xmlns="http://www.w3.org/2000/svg" xmlns:xlink="http://www.w3.org/1999/xlink" x="0px" y="0px"
	 viewBox="0 0 174 174" style="enable-background:new 0 0 174 174;" xml:space="preserve">
<style type="text/css">
	.st0{fill:#797A7F;}
</style>
<rect shape-rendering="optimizeSpeed" class="st0" width="6" height="6"/>
<rect x="6" shape-rendering="optimizeSpeed" class="st0" width="6" height="6"/>
<rect x="12" shape-rendering="optimizeSpeed" class="st0" width="6" height="6"/>
<rect x="18" shape-rendering="optimizeSpeed" class="st0" width="6" height="6"/>
<rect x="24" shape-rendering="optimizeSpeed" class="st0" width="6" height="6"/>
<rect x="30" shape-rendering="optimizeSpeed" class="st0" width="6" height="6"/>
<rect x="36" shape-rendering="optimizeSpeed" class="st0" width="6" height="6"/>
<rect x="48" shape-rendering="optimizeSpeed" class="st0" width="6" height="6"/>
<rect x="60" shape-rendering="optimizeSpeed" class="st0" width="6" height="6"/>
<rect x="72" shape-rendering="optimizeSpeed" class="st0" width="6" height="6"/>
<rect x="78" shape-rendering="optimizeSpeed" class="st0" width="6" height="6"/>
<rect x="90" shape-rendering="optimizeSpeed" class="st0" width="6" height="6"/>
<rect x="114" shape-rendering="optimizeSpeed" class="st0" width="6" height="6"/>
<rect x="120" shape-rendering="optimizeSpeed" class="st0" width="6" height="6"/>
<rect x="132" shape-rendering="optimizeSpeed" class="st0" width="6" height="6"/>
<rect x="138" shape-rendering="optimizeSpeed" class="st0" width="6" height="6"/>
<rect x="144" shape-rendering="optimizeSpeed" class="st0" width="6" height="6"/>
<rect x="150" shape-rendering="optimizeSpeed" class="st0" width="6" height="6"/>
<rect x="156" shape-rendering="optimizeSpeed" class="st0" width="6" height="6"/>
<rect x="162" shape-rendering="optimizeSpeed" class="st0" width="6" height="6"/>
<rect x="168" shape-rendering="optimizeSpeed" class="st0" width="6" height="6"/>
<rect y="6" shape-rendering="optimizeSpeed" class="st0" width="6" height="6"/>
<rect x="36" y="6" shape-rendering="optimizeSpeed" class="st0" width="6" height="6"/>
<rect x="54" y="6" shape-rendering="optimizeSpeed" class="st0" width="6" height="6"/>
<rect x="60" y="6" shape-rendering="optimizeSpeed" class="st0" width="6" height="6"/>
<rect x="66" y="6" shape-rendering="optimizeSpeed" class="st0" width="6" height="6"/>
<rect x="72" y="6" shape-rendering="optimizeSpeed" class="st0" width="6" height="6"/>
<rect x="78" y="6" shape-rendering="optimizeSpeed" class="st0" width="6" height="6"/>
<rect x="96" y="6" shape-rendering="optimizeSpeed" class="st0" width="6" height="6"/>
<rect x="102" y="6" shape-rendering="optimizeSpeed" class="st0" width="6" height="6"/>
<rect x="108" y="6" shape-rendering="optimizeSpeed" class="st0" width="6" height="6"/>
<rect x="132" y="6" shape-rendering="optimizeSpeed" class="st0" width="6" height="6"/>
<rect x="168" y="6" shape-rendering="optimizeSpeed" class="st0" width="6" height="6"/>
<rect y="12" shape-rendering="optimizeSpeed" class="st0" width="6" height="6"/>
<rect x="12" y="12" shape-rendering="optimizeSpeed" class="st0" width="6" height="6"/>
<rect x="18" y="12" shape-rendering="optimizeSpeed" class="st0" width="6" height="6"/>
<rect x="24" y="12" shape-rendering="optimizeSpeed" class="st0" width="6" height="6"/>
<rect x="36" y="12" shape-rendering="optimizeSpeed" class="st0" width="6" height="6"/>
<rect x="48" y="12" shape-rendering="optimizeSpeed" class="st0" width="6" height="6"/>
<rect x="54" y="12" shape-rendering="optimizeSpeed" class="st0" width="6" height="6"/>
<rect x="60" y="12" shape-rendering="optimizeSpeed" class="st0" width="6" height="6"/>
<rect x="90" y="12" shape-rendering="optimizeSpeed" class="st0" width="6" height="6"/>
<rect x="132" y="12" shape-rendering="optimizeSpeed" class="st0" width="6" height="6"/>
<rect x="144" y="12" shape-rendering="optimizeSpeed" class="st0" width="6" height="6"/>
<rect x="150" y="12" shape-rendering="optimizeSpeed" class="st0" width="6" height="6"/>
<rect x="156" y="12" shape-rendering="optimizeSpeed" class="st0" width="6" height="6"/>
<rect x="168" y="12" shape-rendering="optimizeSpeed" class="st0" width="6" height="6"/>
<rect y="18" shape-rendering="optimizeSpeed" class="st0" width="6" height="6"/>
<rect x="12" y="18" shape-rendering="optimizeSpeed" class="st0" width="6" height="6"/>
<rect x="18" y="18" shape-rendering="optimizeSpeed" class="st0" width="6" height="6"/>
<rect x="24" y="18" shape-rendering="optimizeSpeed" class="st0" width="6" height="6"/>
<rect x="36" y="18" shape-rendering="optimizeSpeed" class="st0" width="6" height="6"/>
<rect x="48" y="18" shape-rendering="optimizeSpeed" class="st0" width="6" height="6"/>
<rect x="54" y="18" shape-rendering="optimizeSpeed" class="st0" width="6" height="6"/>
<rect x="60" y="18" shape-rendering="optimizeSpeed" class="st0" width="6" height="6"/>
<rect x="72" y="18" shape-rendering="optimizeSpeed" class="st0" width="6" height="6"/>
<rect x="84" y="18" shape-rendering="optimizeSpeed" class="st0" width="6" height="6"/>
<rect x="102" y="18" shape-rendering="optimizeSpeed" class="st0" width="6" height="6"/>
<rect x="120" y="18" shape-rendering="optimizeSpeed" class="st0" width="6" height="6"/>
<rect x="132" y="18" shape-rendering="optimizeSpeed" class="st0" width="6" height="6"/>
<rect x="144" y="18" shape-rendering="optimizeSpeed" class="st0" width="6" height="6"/>
<rect x="150" y="18" shape-rendering="optimizeSpeed" class="st0" width="6" height="6"/>
<rect x="156" y="18" shape-rendering="optimizeSpeed" class="st0" width="6" height="6"/>
<rect x="168" y="18" shape-rendering="optimizeSpeed" class="st0" width="6" height="6"/>
<rect y="24" shape-rendering="optimizeSpeed" class="st0" width="6" height="6"/>
<rect x="12" y="24" shape-rendering="optimizeSpeed" class="st0" width="6" height="6"/>
<rect x="18" y="24" shape-rendering="optimizeSpeed" class="st0" width="6" height="6"/>
<rect x="24" y="24" shape-rendering="optimizeSpeed" class="st0" width="6" height="6"/>
<rect x="36" y="24" shape-rendering="optimizeSpeed" class="st0" width="6" height="6"/>
<rect x="48" y="24" shape-rendering="optimizeSpeed" class="st0" width="6" height="6"/>
<rect x="66" y="24" shape-rendering="optimizeSpeed" class="st0" width="6" height="6"/>
<rect x="72" y="24" shape-rendering="optimizeSpeed" class="st0" width="6" height="6"/>
<rect x="84" y="24" shape-rendering="optimizeSpeed" class="st0" width="6" height="6"/>
<rect x="90" y="24" shape-rendering="optimizeSpeed" class="st0" width="6" height="6"/>
<rect x="102" y="24" shape-rendering="optimizeSpeed" class="st0" width="6" height="6"/>
<rect x="108" y="24" shape-rendering="optimizeSpeed" class="st0" width="6" height="6"/>
<rect x="114" y="24" shape-rendering="optimizeSpeed" class="st0" width="6" height="6"/>
<rect x="132" y="24" shape-rendering="optimizeSpeed" class="st0" width="6" height="6"/>
<rect x="144" y="24" shape-rendering="optimizeSpeed" class="st0" width="6" height="6"/>
<rect x="150" y="24" shape-rendering="optimizeSpeed" class="st0" width="6" height="6"/>
<rect x="156" y="24" shape-rendering="optimizeSpeed" class="st0" width="6" height="6"/>
<rect x="168" y="24" shape-rendering="optimizeSpeed" class="st0" width="6" height="6"/>
<rect y="30" shape-rendering="optimizeSpeed" class="st0" width="6" height="6"/>
<rect x="36" y="30" shape-rendering="optimizeSpeed" class="st0" width="6" height="6"/>
<rect x="60" y="30" shape-rendering="optimizeSpeed" class="st0" width="6" height="6"/>
<rect x="66" y="30" shape-rendering="optimizeSpeed" class="st0" width="6" height="6"/>
<rect x="78" y="30" shape-rendering="optimizeSpeed" class="st0" width="6" height="6"/>
<rect x="96" y="30" shape-rendering="optimizeSpeed" class="st0" width="6" height="6"/>
<rect x="108" y="30" shape-rendering="optimizeSpeed" class="st0" width="6" height="6"/>
<rect x="114" y="30" shape-rendering="optimizeSpeed" class="st0" width="6" height="6"/>
<rect x="132" y="30" shape-rendering="optimizeSpeed" class="st0" width="6" height="6"/>
<rect x="168" y="30" shape-rendering="optimizeSpeed" class="st0" width="6" height="6"/>
<rect y="36" shape-rendering="optimizeSpeed" class="st0" width="6" height="6"/>
<rect x="6" y="36" shape-rendering="optimizeSpeed" class="st0" width="6" height="6"/>
<rect x="12" y="36" shape-rendering="optimizeSpeed" class="st0" width="6" height="6"/>
<rect x="18" y="36" shape-rendering="optimizeSpeed" class="st0" width="6" height="6"/>
<rect x="24" y="36" shape-rendering="optimizeSpeed" class="st0" width="6" height="6"/>
<rect x="30" y="36" shape-rendering="optimizeSpeed" class="st0" width="6" height="6"/>
<rect x="36" y="36" shape-rendering="optimizeSpeed" class="st0" width="6" height="6"/>
<rect x="48" y="36" shape-rendering="optimizeSpeed" class="st0" width="6" height="6"/>
<rect x="60" y="36" shape-rendering="optimizeSpeed" class="st0" width="6" height="6"/>
<rect x="72" y="36" shape-rendering="optimizeSpeed" class="st0" width="6" height="6"/>
<rect x="84" y="36" shape-rendering="optimizeSpeed" class="st0" width="6" height="6"/>
<rect x="96" y="36" shape-rendering="optimizeSpeed" class="st0" width="6" height="6"/>
<rect x="108" y="36" shape-rendering="optimizeSpeed" class="st0" width="6" height="6"/>
<rect x="120" y="36" shape-rendering="optimizeSpeed" class="st0" width="6" height="6"/>
<rect x="132" y="36" shape-rendering="optimizeSpeed" class="st0" width="6" height="6"/>
<rect x="138" y="36" shape-rendering="optimizeSpeed" class="st0" width="6" height="6"/>
<rect x="144" y="36" shape-rendering="optimizeSpeed" class="st0" width="6" height="6"/>
<rect x="150" y="36" shape-rendering="optimizeSpeed" class="st0" width="6" height="6"/>
<rect x="156" y="36" shape-rendering="optimizeSpeed" class="st0" width="6" height="6"/>
<rect x="162" y="36" shape-rendering="optimizeSpeed" class="st0" width="6" height="6"/>
<rect x="168" y="36" shape-rendering="optimizeSpeed" class="st0" width="6" height="6"/>
<rect x="60" y="42" shape-rendering="optimizeSpeed" class="st0" width="6" height="6"/>
<rect x="72" y="42" shape-rendering="optimizeSpeed" class="st0" width="6" height="6"/>
<rect x="102" y="42" shape-rendering="optimizeSpeed" class="st0" width="6" height="6"/>
<rect x="108" y="42" shape-rendering="optimizeSpeed" class="st0" width="6" height="6"/>
<rect x="114" y="42" shape-rendering="optimizeSpeed" class="st0" width="6" height="6"/>
<rect y="48" shape-rendering="optimizeSpeed" class="st0" width="6" height="6"/>
<rect x="6" y="48" shape-rendering="optimizeSpeed" class="st0" width="6" height="6"/>
<rect x="12" y="48" shape-rendering="optimizeSpeed" class="st0" width="6" height="6"/>
<rect x="18" y="48" shape-rendering="optimizeSpeed" class="st0" width="6" height="6"/>
<rect x="36" y="48" shape-rendering="optimizeSpeed" class="st0" width="6" height="6"/>
<rect x="48" y="48" shape-rendering="optimizeSpeed" class="st0" width="6" height="6"/>
<rect x="60" y="48" shape-rendering="optimizeSpeed" class="st0" width="6" height="6"/>
<rect x="66" y="48" shape-rendering="optimizeSpeed" class="st0" width="6" height="6"/>
<rect x="72" y="48" shape-rendering="optimizeSpeed" class="st0" width="6" height="6"/>
<rect x="78" y="48" shape-rendering="optimizeSpeed" class="st0" width="6" height="6"/>
<rect x="90" y="48" shape-rendering="optimizeSpeed" class="st0" width="6" height="6"/>
<rect x="102" y="48" shape-rendering="optimizeSpeed" class="st0" width="6" height="6"/>
<rect x="108" y="48" shape-rendering="optimizeSpeed" class="st0" width="6" height="6"/>
<rect x="126" y="48" shape-rendering="optimizeSpeed" class="st0" width="6" height="6"/>
<rect x="144" y="48" shape-rendering="optimizeSpeed" class="st0" width="6" height="6"/>
<rect x="150" y="48" shape-rendering="optimizeSpeed" class="st0" width="6" height="6"/>
<rect x="156" y="48" shape-rendering="optimizeSpeed" class="st0" width="6" height="6"/>
<rect x="168" y="48" shape-rendering="optimizeSpeed" class="st0" width="6" height="6"/>
<rect y="54" shape-rendering="optimizeSpeed" class="st0" width="6" height="6"/>
<rect x="12" y="54" shape-rendering="optimizeSpeed" class="st0" width="6" height="6"/>
<rect x="18" y="54" shape-rendering="optimizeSpeed" class="st0" width="6" height="6"/>
<rect x="30" y="54" shape-rendering="optimizeSpeed" class="st0" width="6" height="6"/>
<rect x="42" y="54" shape-rendering="optimizeSpeed" class="st0" width="6" height="6"/>
<rect x="48" y="54" shape-rendering="optimizeSpeed" class="st0" width="6" height="6"/>
<rect x="60" y="54" shape-rendering="optimizeSpeed" class="st0" width="6" height="6"/>
<rect x="72" y="54" shape-rendering="optimizeSpeed" class="st0" width="6" height="6"/>
<rect x="78" y="54" shape-rendering="optimizeSpeed" class="st0" width="6" height="6"/>
<rect x="84" y="54" shape-rendering="optimizeSpeed" class="st0" width="6" height="6"/>
<rect x="96" y="54" shape-rendering="optimizeSpeed" class="st0" width="6" height="6"/>
<rect x="108" y="54" shape-rendering="optimizeSpeed" class="st0" width="6" height="6"/>
<rect x="114" y="54" shape-rendering="optimizeSpeed" class="st0" width="6" height="6"/>
<rect x="126" y="54" shape-rendering="optimizeSpeed" class="st0" width="6" height="6"/>
<rect x="132" y="54" shape-rendering="optimizeSpeed" class="st0" width="6" height="6"/>
<rect x="144" y="54" shape-rendering="optimizeSpeed" class="st0" width="6" height="6"/>
<rect x="168" y="54" shape-rendering="optimizeSpeed" class="st0" width="6" height="6"/>
<rect x="6" y="60" shape-rendering="optimizeSpeed" class="st0" width="6" height="6"/>
<rect x="24" y="60" shape-rendering="optimizeSpeed" class="st0" width="6" height="6"/>
<rect x="30" y="60" shape-rendering="optimizeSpeed" class="st0" width="6" height="6"/>
<rect x="36" y="60" shape-rendering="optimizeSpeed" class="st0" width="6" height="6"/>
<rect x="42" y="60" shape-rendering="optimizeSpeed" class="st0" width="6" height="6"/>
<rect x="54" y="60" shape-rendering="optimizeSpeed" class="st0" width="6" height="6"/>
<rect x="60" y="60" shape-rendering="optimizeSpeed" class="st0" width="6" height="6"/>
<rect x="66" y="60" shape-rendering="optimizeSpeed" class="st0" width="6" height="6"/>
<rect x="72" y="60" shape-rendering="optimizeSpeed" class="st0" width="6" height="6"/>
<rect x="78" y="60" shape-rendering="optimizeSpeed" class="st0" width="6" height="6"/>
<rect x="96" y="60" shape-rendering="optimizeSpeed" class="st0" width="6" height="6"/>
<rect x="102" y="60" shape-rendering="optimizeSpeed" class="st0" width="6" height="6"/>
<rect x="108" y="60" shape-rendering="optimizeSpeed" class="st0" width="6" height="6"/>
<rect x="120" y="60" shape-rendering="optimizeSpeed" class="st0" width="6" height="6"/>
<rect x="126" y="60" shape-rendering="optimizeSpeed" class="st0" width="6" height="6"/>
<rect x="132" y="60" shape-rendering="optimizeSpeed" class="st0" width="6" height="6"/>
<rect x="144" y="60" shape-rendering="optimizeSpeed" class="st0" width="6" height="6"/>
<rect x="156" y="60" shape-rendering="optimizeSpeed" class="st0" width="6" height="6"/>
<rect x="162" y="60" shape-rendering="optimizeSpeed" class="st0" width="6" height="6"/>
<rect x="12" y="66" shape-rendering="optimizeSpeed" class="st0" width="6" height="6"/>
<rect x="18" y="66" shape-rendering="optimizeSpeed" class="st0" width="6" height="6"/>
<rect x="54" y="66" shape-rendering="optimizeSpeed" class="st0" width="6" height="6"/>
<rect x="60" y="66" shape-rendering="optimizeSpeed" class="st0" width="6" height="6"/>
<rect x="114" y="66" shape-rendering="optimizeSpeed" class="st0" width="6" height="6"/>
<rect x="138" y="66" shape-rendering="optimizeSpeed" class="st0" width="6" height="6"/>
<rect x="144" y="66" shape-rendering="optimizeSpeed" class="st0" width="6" height="6"/>
<rect x="168" y="66" shape-rendering="optimizeSpeed" class="st0" width="6" height="6"/>
<rect x="6" y="72" shape-rendering="optimizeSpeed" class="st0" width="6" height="6"/>
<rect x="12" y="72" shape-rendering="optimizeSpeed" class="st0" width="6" height="6"/>
<rect x="18" y="72" shape-rendering="optimizeSpeed" class="st0" width="6" height="6"/>
<rect x="30" y="72" shape-rendering="optimizeSpeed" class="st0" width="6" height="6"/>
<rect x="36" y="72" shape-rendering="optimizeSpeed" class="st0" width="6" height="6"/>
<rect x="48" y="72" shape-rendering="optimizeSpeed" class="st0" width="6" height="6"/>
<rect x="54" y="72" shape-rendering="optimizeSpeed" class="st0" width="6" height="6"/>
<rect x="60" y="72" shape-rendering="optimizeSpeed" class="st0" width="6" height="6"/>
<rect x="72" y="72" shape-rendering="optimizeSpeed" class="st0" width="6" height="6"/>
<rect x="84" y="72" shape-rendering="optimizeSpeed" class="st0" width="6" height="6"/>
<rect x="90" y="72" shape-rendering="optimizeSpeed" class="st0" width="6" height="6"/>
<rect x="102" y="72" shape-rendering="optimizeSpeed" class="st0" width="6" height="6"/>
<rect x="114" y="72" shape-rendering="optimizeSpeed" class="st0" width="6" height="6"/>
<rect x="120" y="72" shape-rendering="optimizeSpeed" class="st0" width="6" height="6"/>
<rect x="150" y="72" shape-rendering="optimizeSpeed" class="st0" width="6" height="6"/>
<rect x="156" y="72" shape-rendering="optimizeSpeed" class="st0" width="6" height="6"/>
<rect y="78" shape-rendering="optimizeSpeed" class="st0" width="6" height="6"/>
<rect x="24" y="78" shape-rendering="optimizeSpeed" class="st0" width="6" height="6"/>
<rect x="30" y="78" shape-rendering="optimizeSpeed" class="st0" width="6" height="6"/>
<rect x="42" y="78" shape-rendering="optimizeSpeed" class="st0" width="6" height="6"/>
<rect x="48" y="78" shape-rendering="optimizeSpeed" class="st0" width="6" height="6"/>
<rect x="66" y="78" shape-rendering="optimizeSpeed" class="st0" width="6" height="6"/>
<rect x="72" y="78" shape-rendering="optimizeSpeed" class="st0" width="6" height="6"/>
<rect x="84" y="78" shape-rendering="optimizeSpeed" class="st0" width="6" height="6"/>
<rect x="90" y="78" shape-rendering="optimizeSpeed" class="st0" width="6" height="6"/>
<rect x="96" y="78" shape-rendering="optimizeSpeed" class="st0" width="6" height="6"/>
<rect x="114" y="78" shape-rendering="optimizeSpeed" class="st0" width="6" height="6"/>
<rect x="132" y="78" shape-rendering="optimizeSpeed" class="st0" width="6" height="6"/>
<rect x="156" y="78" shape-rendering="optimizeSpeed" class="st0" width="6" height="6"/>
<rect x="162" y="78" shape-rendering="optimizeSpeed" class="st0" width="6" height="6"/>
<rect x="168" y="78" shape-rendering="optimizeSpeed" class="st0" width="6" height="6"/>
<rect y="84" shape-rendering="optimizeSpeed" class="st0" width="6" height="6"/>
<rect x="18" y="84" shape-rendering="optimizeSpeed" class="st0" width="6" height="6"/>
<rect x="24" y="84" shape-rendering="optimizeSpeed" class="st0" width="6" height="6"/>
<rect x="30" y="84" shape-rendering="optimizeSpeed" class="st0" width="6" height="6"/>
<rect x="36" y="84" shape-rendering="optimizeSpeed" class="st0" width="6" height="6"/>
<rect x="42" y="84" shape-rendering="optimizeSpeed" class="st0" width="6" height="6"/>
<rect x="66" y="84" shape-rendering="optimizeSpeed" class="st0" width="6" height="6"/>
<rect x="78" y="84" shape-rendering="optimizeSpeed" class="st0" width="6" height="6"/>
<rect x="96" y="84" shape-rendering="optimizeSpeed" class="st0" width="6" height="6"/>
<rect x="114" y="84" shape-rendering="optimizeSpeed" class="st0" width="6" height="6"/>
<rect x="120" y="84" shape-rendering="optimizeSpeed" class="st0" width="6" height="6"/>
<rect x="132" y="84" shape-rendering="optimizeSpeed" class="st0" width="6" height="6"/>
<rect x="138" y="84" shape-rendering="optimizeSpeed" class="st0" width="6" height="6"/>
<rect x="156" y="84" shape-rendering="optimizeSpeed" class="st0" width="6" height="6"/>
<rect x="162" y="84" shape-rendering="optimizeSpeed" class="st0" width="6" height="6"/>
<rect x="168" y="84" shape-rendering="optimizeSpeed" class="st0" width="6" height="6"/>
<rect y="90" shape-rendering="optimizeSpeed" class="st0" width="6" height="6"/>
<rect x="6" y="90" shape-rendering="optimizeSpeed" class="st0" width="6" height="6"/>
<rect x="12" y="90" shape-rendering="optimizeSpeed" class="st0" width="6" height="6"/>
<rect x="18" y="90" shape-rendering="optimizeSpeed" class="st0" width="6" height="6"/>
<rect x="30" y="90" shape-rendering="optimizeSpeed" class="st0" width="6" height="6"/>
<rect x="42" y="90" shape-rendering="optimizeSpeed" class="st0" width="6" height="6"/>
<rect x="66" y="90" shape-rendering="optimizeSpeed" class="st0" width="6" height="6"/>
<rect x="84" y="90" shape-rendering="optimizeSpeed" class="st0" width="6" height="6"/>
<rect x="90" y="90" shape-rendering="optimizeSpeed" class="st0" width="6" height="6"/>
<rect x="96" y="90" shape-rendering="optimizeSpeed" class="st0" width="6" height="6"/>
<rect x="120" y="90" shape-rendering="optimizeSpeed" class="st0" width="6" height="6"/>
<rect x="132" y="90" shape-rendering="optimizeSpeed" class="st0" width="6" height="6"/>
<rect x="138" y="90" shape-rendering="optimizeSpeed" class="st0" width="6" height="6"/>
<rect x="162" y="90" shape-rendering="optimizeSpeed" class="st0" width="6" height="6"/>
<rect y="96" shape-rendering="optimizeSpeed" class="st0" width="6" height="6"/>
<rect x="6" y="96" shape-rendering="optimizeSpeed" class="st0" width="6" height="6"/>
<rect x="12" y="96" shape-rendering="optimizeSpeed" class="st0" width="6" height="6"/>
<rect x="18" y="96" shape-rendering="optimizeSpeed" class="st0" width="6" height="6"/>
<rect x="30" y="96" shape-rendering="optimizeSpeed" class="st0" width="6" height="6"/>
<rect x="36" y="96" shape-rendering="optimizeSpeed" class="st0" width="6" height="6"/>
<rect x="42" y="96" shape-rendering="optimizeSpeed" class="st0" width="6" height="6"/>
<rect x="54" y="96" shape-rendering="optimizeSpeed" class="st0" width="6" height="6"/>
<rect x="60" y="96" shape-rendering="optimizeSpeed" class="st0" width="6" height="6"/>
<rect x="72" y="96" shape-rendering="optimizeSpeed" class="st0" width="6" height="6"/>
<rect x="84" y="96" shape-rendering="optimizeSpeed" class="st0" width="6" height="6"/>
<rect x="96" y="96" shape-rendering="optimizeSpeed" class="st0" width="6" height="6"/>
<rect x="108" y="96" shape-rendering="optimizeSpeed" class="st0" width="6" height="6"/>
<rect x="120" y="96" shape-rendering="optimizeSpeed" class="st0" width="6" height="6"/>
<rect x="126" y="96" shape-rendering="optimizeSpeed" class="st0" width="6" height="6"/>
<rect x="138" y="96" shape-rendering="optimizeSpeed" class="st0" width="6" height="6"/>
<rect x="144" y="96" shape-rendering="optimizeSpeed" class="st0" width="6" height="6"/>
<rect x="150" y="96" shape-rendering="optimizeSpeed" class="st0" width="6" height="6"/>
<rect x="162" y="96" shape-rendering="optimizeSpeed" class="st0" width="6" height="6"/>
<rect x="6" y="102" shape-rendering="optimizeSpeed" class="st0" width="6" height="6"/>
<rect x="24" y="102" shape-rendering="optimizeSpeed" class="st0" width="6" height="6"/>
<rect x="30" y="102" shape-rendering="optimizeSpeed" class="st0" width="6" height="6"/>
<rect x="42" y="102" shape-rendering="optimizeSpeed" class="st0" width="6" height="6"/>
<rect x="84" y="102" shape-rendering="optimizeSpeed" class="st0" width="6" height="6"/>
<rect x="90" y="102" shape-rendering="optimizeSpeed" class="st0" width="6" height="6"/>
<rect x="102" y="102" shape-rendering="optimizeSpeed" class="st0" width="6" height="6"/>
<rect x="120" y="102" shape-rendering="optimizeSpeed" class="st0" width="6" height="6"/>
<rect x="126" y="102" shape-rendering="optimizeSpeed" class="st0" width="6" height="6"/>
<rect x="138" y="102" shape-rendering="optimizeSpeed" class="st0" width="6" height="6"/>
<rect x="150" y="102" shape-rendering="optimizeSpeed" class="st0" width="6" height="6"/>
<rect x="156" y="102" shape-rendering="optimizeSpeed" class="st0" width="6" height="6"/>
<rect x="162" y="102" shape-rendering="optimizeSpeed" class="st0" width="6" height="6"/>
<rect y="108" shape-rendering="optimizeSpeed" class="st0" width="6" height="6"/>
<rect x="18" y="108" shape-rendering="optimizeSpeed" class="st0" width="6" height="6"/>
<rect x="24" y="108" shape-rendering="optimizeSpeed" class="st0" width="6" height="6"/>
<rect x="30" y="108" shape-rendering="optimizeSpeed" class="st0" width="6" height="6"/>
<rect x="36" y="108" shape-rendering="optimizeSpeed" class="st0" width="6" height="6"/>
<rect x="42" y="108" shape-rendering="optimizeSpeed" class="st0" width="6" height="6"/>
<rect x="54" y="108" shape-rendering="optimizeSpeed" class="st0" width="6" height="6"/>
<rect x="78" y="108" shape-rendering="optimizeSpeed" class="st0" width="6" height="6"/>
<rect x="84" y="108" shape-rendering="optimizeSpeed" class="st0" width="6" height="6"/>
<rect x="90" y="108" shape-rendering="optimizeSpeed" class="st0" width="6" height="6"/>
<rect x="96" y="108" shape-rendering="optimizeSpeed" class="st0" width="6" height="6"/>
<rect x="102" y="108" shape-rendering="optimizeSpeed" class="st0" width="6" height="6"/>
<rect x="126" y="108" shape-rendering="optimizeSpeed" class="st0" width="6" height="6"/>
<rect x="138" y="108" shape-rendering="optimizeSpeed" class="st0" width="6" height="6"/>
<rect x="144" y="108" shape-rendering="optimizeSpeed" class="st0" width="6" height="6"/>
<rect x="156" y="108" shape-rendering="optimizeSpeed" class="st0" width="6" height="6"/>
<rect x="12" y="114" shape-rendering="optimizeSpeed" class="st0" width="6" height="6"/>
<rect x="18" y="114" shape-rendering="optimizeSpeed" class="st0" width="6" height="6"/>
<rect x="24" y="114" shape-rendering="optimizeSpeed" class="st0" width="6" height="6"/>
<rect x="30" y="114" shape-rendering="optimizeSpeed" class="st0" width="6" height="6"/>
<rect x="42" y="114" shape-rendering="optimizeSpeed" class="st0" width="6" height="6"/>
<rect x="66" y="114" shape-rendering="optimizeSpeed" class="st0" width="6" height="6"/>
<rect x="78" y="114" shape-rendering="optimizeSpeed" class="st0" width="6" height="6"/>
<rect x="84" y="114" shape-rendering="optimizeSpeed" class="st0" width="6" height="6"/>
<rect x="102" y="114" shape-rendering="optimizeSpeed" class="st0" width="6" height="6"/>
<rect x="108" y="114" shape-rendering="optimizeSpeed" class="st0" width="6" height="6"/>
<rect x="132" y="114" shape-rendering="optimizeSpeed" class="st0" width="6" height="6"/>
<rect x="156" y="114" shape-rendering="optimizeSpeed" class="st0" width="6" height="6"/>
<rect x="6" y="120" shape-rendering="optimizeSpeed" class="st0" width="6" height="6"/>
<rect x="30" y="120" shape-rendering="optimizeSpeed" class="st0" width="6" height="6"/>
<rect x="36" y="120" shape-rendering="optimizeSpeed" class="st0" width="6" height="6"/>
<rect x="48" y="120" shape-rendering="optimizeSpeed" class="st0" width="6" height="6"/>
<rect x="54" y="120" shape-rendering="optimizeSpeed" class="st0" width="6" height="6"/>
<rect x="78" y="120" shape-rendering="optimizeSpeed" class="st0" width="6" height="6"/>
<rect x="84" y="120" shape-rendering="optimizeSpeed" class="st0" width="6" height="6"/>
<rect x="96" y="120" shape-rendering="optimizeSpeed" class="st0" width="6" height="6"/>
<rect x="102" y="120" shape-rendering="optimizeSpeed" class="st0" width="6" height="6"/>
<rect x="114" y="120" shape-rendering="optimizeSpeed" class="st0" width="6" height="6"/>
<rect x="120" y="120" shape-rendering="optimizeSpeed" class="st0" width="6" height="6"/>
<rect x="126" y="120" shape-rendering="optimizeSpeed" class="st0" width="6" height="6"/>
<rect x="132" y="120" shape-rendering="optimizeSpeed" class="st0" width="6" height="6"/>
<rect x="138" y="120" shape-rendering="optimizeSpeed" class="st0" width="6" height="6"/>
<rect x="144" y="120" shape-rendering="optimizeSpeed" class="st0" width="6" height="6"/>
<rect x="150" y="120" shape-rendering="optimizeSpeed" class="st0" width="6" height="6"/>
<rect x="156" y="120" shape-rendering="optimizeSpeed" class="st0" width="6" height="6"/>
<rect x="48" y="126" shape-rendering="optimizeSpeed" class="st0" width="6" height="6"/>
<rect x="96" y="126" shape-rendering="optimizeSpeed" class="st0" width="6" height="6"/>
<rect x="102" y="126" shape-rendering="optimizeSpeed" class="st0" width="6" height="6"/>
<rect x="108" y="126" shape-rendering="optimizeSpeed" class="st0" width="6" height="6"/>
<rect x="114" y="126" shape-rendering="optimizeSpeed" class="st0" width="6" height="6"/>
<rect x="120" y="126" shape-rendering="optimizeSpeed" class="st0" width="6" height="6"/>
<rect x="144" y="126" shape-rendering="optimizeSpeed" class="st0" width="6" height="6"/>
<rect x="150" y="126" shape-rendering="optimizeSpeed" class="st0" width="6" height="6"/>
<rect x="156" y="126" shape-rendering="optimizeSpeed" class="st0" width="6" height="6"/>
<rect x="162" y="126" shape-rendering="optimizeSpeed" class="st0" width="6" height="6"/>
<rect x="168" y="126" shape-rendering="optimizeSpeed" class="st0" width="6" height="6"/>
<rect y="132" shape-rendering="optimizeSpeed" class="st0" width="6" height="6"/>
<rect x="6" y="132" shape-rendering="optimizeSpeed" class="st0" width="6" height="6"/>
<rect x="12" y="132" shape-rendering="optimizeSpeed" class="st0" width="6" height="6"/>
<rect x="18" y="132" shape-rendering="optimizeSpeed" class="st0" width="6" height="6"/>
<rect x="24" y="132" shape-rendering="optimizeSpeed" class="st0" width="6" height="6"/>
<rect x="30" y="132" shape-rendering="optimizeSpeed" class="st0" width="6" height="6"/>
<rect x="36" y="132" shape-rendering="optimizeSpeed" class="st0" width="6" height="6"/>
<rect x="54" y="132" shape-rendering="optimizeSpeed" class="st0" width="6" height="6"/>
<rect x="84" y="132" shape-rendering="optimizeSpeed" class="st0" width="6" height="6"/>
<rect x="96" y="132" shape-rendering="optimizeSpeed" class="st0" width="6" height="6"/>
<rect x="108" y="132" shape-rendering="optimizeSpeed" class="st0" width="6" height="6"/>
<rect x="114" y="132" shape-rendering="optimizeSpeed" class="st0" width="6" height="6"/>
<rect x="120" y="132" shape-rendering="optimizeSpeed" class="st0" width="6" height="6"/>
<rect x="132" y="132" shape-rendering="optimizeSpeed" class="st0" width="6" height="6"/>
<rect x="144" y="132" shape-rendering="optimizeSpeed" class="st0" width="6" height="6"/>
<rect x="150" y="132" shape-rendering="optimizeSpeed" class="st0" width="6" height="6"/>
<rect x="162" y="132" shape-rendering="optimizeSpeed" class="st0" width="6" height="6"/>
<rect y="138" shape-rendering="optimizeSpeed" class="st0" width="6" height="6"/>
<rect x="36" y="138" shape-rendering="optimizeSpeed" class="st0" width="6" height="6"/>
<rect x="54" y="138" shape-rendering="optimizeSpeed" class="st0" width="6" height="6"/>
<rect x="66" y="138" shape-rendering="optimizeSpeed" class="st0" width="6" height="6"/>
<rect x="72" y="138" shape-rendering="optimizeSpeed" class="st0" width="6" height="6"/>
<rect x="78" y="138" shape-rendering="optimizeSpeed" class="st0" width="6" height="6"/>
<rect x="84" y="138" shape-rendering="optimizeSpeed" class="st0" width="6" height="6"/>
<rect x="108" y="138" shape-rendering="optimizeSpeed" class="st0" width="6" height="6"/>
<rect x="120" y="138" shape-rendering="optimizeSpeed" class="st0" width="6" height="6"/>
<rect x="144" y="138" shape-rendering="optimizeSpeed" class="st0" width="6" height="6"/>
<rect x="150" y="138" shape-rendering="optimizeSpeed" class="st0" width="6" height="6"/>
<rect x="168" y="138" shape-rendering="optimizeSpeed" class="st0" width="6" height="6"/>
<rect y="144" shape-rendering="optimizeSpeed" class="st0" width="6" height="6"/>
<rect x="12" y="144" shape-rendering="optimizeSpeed" class="st0" width="6" height="6"/>
<rect x="18" y="144" shape-rendering="optimizeSpeed" class="st0" width="6" height="6"/>
<rect x="24" y="144" shape-rendering="optimizeSpeed" class="st0" width="6" height="6"/>
<rect x="36" y="144" shape-rendering="optimizeSpeed" class="st0" width="6" height="6"/>
<rect x="54" y="144" shape-rendering="optimizeSpeed" class="st0" width="6" height="6"/>
<rect x="60" y="144" shape-rendering="optimizeSpeed" class="st0" width="6" height="6"/>
<rect x="66" y="144" shape-rendering="optimizeSpeed" class="st0" width="6" height="6"/>
<rect x="90" y="144" shape-rendering="optimizeSpeed" class="st0" width="6" height="6"/>
<rect x="102" y="144" shape-rendering="optimizeSpeed" class="st0" width="6" height="6"/>
<rect x="120" y="144" shape-rendering="optimizeSpeed" class="st0" width="6" height="6"/>
<rect x="126" y="144" shape-rendering="optimizeSpeed" class="st0" width="6" height="6"/>
<rect x="132" y="144" shape-rendering="optimizeSpeed" class="st0" width="6" height="6"/>
<rect x="138" y="144" shape-rendering="optimizeSpeed" class="st0" width="6" height="6"/>
<rect x="144" y="144" shape-rendering="optimizeSpeed" class="st0" width="6" height="6"/>
<rect x="156" y="144" shape-rendering="optimizeSpeed" class="st0" width="6" height="6"/>
<rect y="150" shape-rendering="optimizeSpeed" class="st0" width="6" height="6"/>
<rect x="12" y="150" shape-rendering="optimizeSpeed" class="st0" width="6" height="6"/>
<rect x="18" y="150" shape-rendering="optimizeSpeed" class="st0" width="6" height="6"/>
<rect x="24" y="150" shape-rendering="optimizeSpeed" class="st0" width="6" height="6"/>
<rect x="36" y="150" shape-rendering="optimizeSpeed" class="st0" width="6" height="6"/>
<rect x="48" y="150" shape-rendering="optimizeSpeed" class="st0" width="6" height="6"/>
<rect x="54" y="150" shape-rendering="optimizeSpeed" class="st0" width="6" height="6"/>
<rect x="60" y="150" shape-rendering="optimizeSpeed" class="st0" width="6" height="6"/>
<rect x="66" y="150" shape-rendering="optimizeSpeed" class="st0" width="6" height="6"/>
<rect x="78" y="150" shape-rendering="optimizeSpeed" class="st0" width="6" height="6"/>
<rect x="90" y="150" shape-rendering="optimizeSpeed" class="st0" width="6" height="6"/>
<rect x="96" y="150" shape-rendering="optimizeSpeed" class="st0" width="6" height="6"/>
<rect x="102" y="150" shape-rendering="optimizeSpeed" class="st0" width="6" height="6"/>
<rect x="114" y="150" shape-rendering="optimizeSpeed" class="st0" width="6" height="6"/>
<rect x="120" y="150" shape-rendering="optimizeSpeed" class="st0" width="6" height="6"/>
<rect x="126" y="150" shape-rendering="optimizeSpeed" class="st0" width="6" height="6"/>
<rect x="138" y="150" shape-rendering="optimizeSpeed" class="st0" width="6" height="6"/>
<rect x="144" y="150" shape-rendering="optimizeSpeed" class="st0" width="6" height="6"/>
<rect x="150" y="150" shape-rendering="optimizeSpeed" class="st0" width="6" height="6"/>
<rect x="168" y="150" shape-rendering="optimizeSpeed" class="st0" width="6" height="6"/>
<rect y="156" shape-rendering="optimizeSpeed" class="st0" width="6" height="6"/>
<rect x="12" y="156" shape-rendering="optimizeSpeed" class="st0" width="6" height="6"/>
<rect x="18" y="156" shape-rendering="optimizeSpeed" class="st0" width="6" height="6"/>
<rect x="24" y="156" shape-rendering="optimizeSpeed" class="st0" width="6" height="6"/>
<rect x="36" y="156" shape-rendering="optimizeSpeed" class="st0" width="6" height="6"/>
<rect x="48" y="156" shape-rendering="optimizeSpeed" class="st0" width="6" height="6"/>
<rect x="54" y="156" shape-rendering="optimizeSpeed" class="st0" width="6" height="6"/>
<rect x="72" y="156" shape-rendering="optimizeSpeed" class="st0" width="6" height="6"/>
<rect x="84" y="156" shape-rendering="optimizeSpeed" class="st0" width="6" height="6"/>
<rect x="96" y="156" shape-rendering="optimizeSpeed" class="st0" width="6" height="6"/>
<rect x="102" y="156" shape-rendering="optimizeSpeed" class="st0" width="6" height="6"/>
<rect x="114" y="156" shape-rendering="optimizeSpeed" class="st0" width="6" height="6"/>
<rect x="138" y="156" shape-rendering="optimizeSpeed" class="st0" width="6" height="6"/>
<rect x="156" y="156" shape-rendering="optimizeSpeed" class="st0" width="6" height="6"/>
<rect x="168" y="156" shape-rendering="optimizeSpeed" class="st0" width="6" height="6"/>
<rect y="162" shape-rendering="optimizeSpeed" class="st0" width="6" height="6"/>
<rect x="36" y="162" shape-rendering="optimizeSpeed" class="st0" width="6" height="6"/>
<rect x="48" y="162" shape-rendering="optimizeSpeed" class="st0" width="6" height="6"/>
<rect x="54" y="162" shape-rendering="optimizeSpeed" class="st0" width="6" height="6"/>
<rect x="72" y="162" shape-rendering="optimizeSpeed" class="st0" width="6" height="6"/>
<rect x="78" y="162" shape-rendering="optimizeSpeed" class="st0" width="6" height="6"/>
<rect x="120" y="162" shape-rendering="optimizeSpeed" class="st0" width="6" height="6"/>
<rect x="144" y="162" shape-rendering="optimizeSpeed" class="st0" width="6" height="6"/>
<rect x="150" y="162" shape-rendering="optimizeSpeed" class="st0" width="6" height="6"/>
<rect x="162" y="162" shape-rendering="optimizeSpeed" class="st0" width="6" height="6"/>
<rect y="168" shape-rendering="optimizeSpeed" class="st0" width="6" height="6"/>
<rect x="6" y="168" shape-rendering="optimizeSpeed" class="st0" width="6" height="6"/>
<rect x="12" y="168" shape-rendering="optimizeSpeed" class="st0" width="6" height="6"/>
<rect x="18" y="168" shape-rendering="optimizeSpeed" class="st0" width="6" height="6"/>
<rect x="24" y="168" shape-rendering="optimizeSpeed" class="st0" width="6" height="6"/>
<rect x="30" y="168" shape-rendering="optimizeSpeed" class="st0" width="6" height="6"/>
<rect x="36" y="168" shape-rendering="optimizeSpeed" class="st0" width="6" height="6"/>
<rect x="48" y="168" shape-rendering="optimizeSpeed" class="st0" width="6" height="6"/>
<rect x="66" y="168" shape-rendering="optimizeSpeed" class="st0" width="6" height="6"/>
<rect x="96" y="168" shape-rendering="optimizeSpeed" class="st0" width="6" height="6"/>
<rect x="108" y="168" shape-rendering="optimizeSpeed" class="st0" width="6" height="6"/>
<rect x="114" y="168" shape-rendering="optimizeSpeed" class="st0" width="6" height="6"/>
<rect x="120" y="168" shape-rendering="optimizeSpeed" class="st0" width="6" height="6"/>
<rect x="126" y="168" shape-rendering="optimizeSpeed" class="st0" width="6" height="6"/>
<rect x="162" y="168" shape-rendering="optimizeSpeed" class="st0" width="6" height="6"/>
</svg>
