<svg xmlns="http://www.w3.org/2000/svg" width="495" height="376" fill="none" xmlns:v="https://vecta.io/nano"><g clip-path="url(#C)"><path d="M300.898 81.86l7.697-1.203c19.722-5.055 42.332 8.665 47.623 28.883l17.318 66.672-85.145 18.774-7.697-72.208c-8.418-16.848 1.443-36.585 20.204-40.917z" fill="#007bff"/><path d="M385.08 276.82c4.81 7.702 10.102 15.645 13.95 24.07 3.608 7.702 15.153 10.11 21.888 5.777 7.697-5.055 9.62-13.72 5.773-21.903-3.85-8.424-8.9-16.367-13.95-24.07-4.33-6.98-14.43-10.59-21.887-5.777-6.975 4.573-10.343 14.2-5.773 21.903z" fill="#f8ada8"/><path d="M349.484 181.75l-11.305-3.6c-5.773.962-11.786.962-17.8 1.203-8.418.482-17.077 2.648-28.14 6.74-13.228 4.814-38.724 49.583-51.953 80.15l-32.23 42.843H375.46l19.963-71.004c5.532-28.402-14.912-41.158-45.94-56.322z" fill="#dfdeff"/><path d="M374.017 244.328c-38.243 2.166-76.245 2.407-114.49 0-11.545-.722-11.545 17.33 0 18.052 38.244 2.406 76.246 2.166 114.49 0 11.545-.723 11.786-18.774 0-18.052z" fill="#7772f2"/><path d="M334.812 127.838c0-.48-.24-.722-.24-1.203 3.127-6.5 3.848-13.96 1.443-21.18-4.8-15.164-21.166-23.588-36.32-18.533-11.545 3.6-19 13.96-19.963 25.272-.48 2.166-.962 4.333-1.684 6.5-3.367 6.017-4.8 13.238-3.367 20.7 3.127 16.608 19.242 27.68 35.838 24.55 16.355-3.37 27.42-19.496 24.292-36.104z" fill="#f8ada8"/><g fill="#171717"><path d="M292.48 117.723c.93 0 1.684-.754 1.684-1.685s-.754-1.684-1.684-1.684-1.684.754-1.684 1.684.754 1.685 1.684 1.685zm-12.026 1.927c.93 0 1.684-.754 1.684-1.685s-.754-1.685-1.684-1.685-1.683.755-1.683 1.685.753 1.685 1.683 1.685zm4.942 14.342c2.646 0 5.292-.963 6.735-3.13.72-.722.72-1.926 0-2.648a1.89 1.89 0 0 0-2.646 0c-.962 1.445-2.405 2.167-4.33 2.167-2.165-.24-2.165 3.6.24 3.6z"/></g><path d="M344.193 117c5.532-7.943 5.05-18.292-1.203-23.106l-12.507-9.628c-6.254-4.814-15.875-2.407-21.407 5.536s-9.86 14.682-3.607 19.496l17.317 13.238c6.254 5.055 15.875 2.407 21.407-5.536z" fill="#007bff"/><path d="M331.926 133.61c4.782 0 8.66-3.88 8.66-8.665s-3.877-8.665-8.66-8.665-8.66 3.88-8.66 8.665 3.877 8.665 8.66 8.665z" fill="#f8ada8"/><path d="M332.407 125.907c0-.962.72-1.925 1.443-2.407s1.202-1.684.72-2.406-1.683-1.204-2.405-.722c-1.924 1.444-3.127 3.37-3.367 5.776-.24 2.166 3.367 2.166 3.608-.24z" fill="#171717"/><path d="M305.178 126.857c2.14 0 3.874-1.736 3.874-3.877s-1.735-3.876-3.874-3.876-3.874 1.735-3.874 3.876 1.734 3.877 3.874 3.877z" fill="#fb719c"/><path d="M310.76 152.142l3.848-.48c2.886-.24 5.292 1.685 5.532 4.573l2.886 29.364c.48 3.85-2.405 7.22-6.253 7.702s-7.216-2.406-7.697-6.257l-2.886-29.365c-.24-2.647 1.683-5.295 4.57-5.536z" fill="#f8ada8"/><path d="M307.633 163.698L322.064 175l-1.443-14.682-12.988 3.37z" fill="#12355b"/><g fill="#007bff"><path d="M316.05 116.283c-1.443.963-3.367.24-4.8-.48l-8.418-4.333c-6.495-3.37-13.7-7.22-16.596-13.96-.482-.963-.722-1.925-.482-2.888.24-.722.722-1.203 1.444-1.685 3.848-3.37 7.696-6.74 12.266-9.146s9.862-3.37 14.913-1.925c1.443 9.387 1.924 19.015.962 28.642"/><path d="M290.556 93.9c-1.443.48-2.886.24-4.33-.48-.24 1.444-1.202 2.648-2.164 3.6-2.887 3.85-6.254 11.072-4.57 15.645 5.772-1.444 10.583-13.478 11.064-18.774z"/></g><path d="M450.743 311.482H29.108v.963h421.635v-.963z" fill="#12355b"/><path d="M241.5 313.166h170.77c23.1 0 23.1-35.863 0-35.863H241.5c-23.09 0-23.09 35.863 0 35.863z" fill="#f8ada8"/><path d="M434.63 278.99l-26.698-65.95c-5.05-13.72-19.483-20.46-32.23-15.163s-3.608 20.458 1.443 34.178l2.405 45.01 55.08 1.926z" fill="#dfdeff"/><path d="M377.203 234.943l-.96.045 1.806 38.47.96-.046-1.806-38.468z" fill="#12355b"/><path d="M321.343 171.4l49.307-7.462 4.8 23.588c1.925 14.2-8.177 27.198-22.368 28.883-14.19 1.926-27.18-8.183-28.863-22.384l-2.886-22.625z" fill="#007bff"/><path d="M315.09 299.45h-60.37c.24-1.204.48-2.407.48-3.85v-98.924c0-9.387-7.696-16.85-16.836-16.85H101.506c-9.38 0-16.837 7.702-16.837 16.85V295.6c0 9.387 7.697 16.848 16.837 16.848h136.857c.962 0 2.164 0 3.126-.24h73.84a6.47 6.47 0 0 0 6.494-6.498c-.24-3.37-3.127-6.258-6.735-6.258z" fill="#12355b"/><g fill="#1e212c"><path d="M72.883 91.97c-10.824 0-21.166-4.332-28.863-12.035S31.994 61.883 31.994 51.052s4.33-21.18 12.026-28.883 18.04-12.034 28.863-12.034h90.196c22.6 0 40.9 18.292 40.9 40.918 0 10.83-4.33 21.18-12.026 28.883S173.902 91.97 163.08 91.97H72.883zm90.196-81.113H72.883c-10.824 0-20.925 4.092-28.622 11.794s-11.786 17.8-11.786 28.642 4.1 20.94 11.786 28.642S62.06 91.73 72.883 91.73h90.196c10.823 0 20.925-4.092 28.622-11.794s11.786-17.8 11.786-28.642c0-22.384-18.28-40.436-40.408-40.436zm279.487 81.115c-6.975 0-13.7-2.648-18.76-7.702s-7.697-11.553-7.697-18.774c0-6.98 2.646-13.72 7.697-18.774s11.545-7.702 18.76-7.702h18.04c6.975 0 13.7 2.648 18.76 7.702s7.696 11.553 7.696 18.774c0 14.442-11.785 26.476-26.457 26.476h-18.04zm0-52.47c-6.975 0-13.47 2.648-18.28 7.702s-7.697 11.313-7.697 18.293 2.646 13.48 7.697 18.293c4.8 4.814 11.305 7.702 18.28 7.702h18.04c14.2 0 25.976-11.553 25.976-25.995 0-6.98-2.645-13.48-7.696-18.293-4.8-4.814-11.305-7.702-18.28-7.702h-18.04zM209.26 104.008c-4.33 0-7.697-3.37-7.697-7.702 0-2.166.72-4.092 2.165-5.536s3.367-2.166 5.532-2.166c4.33 0 7.696 3.37 7.696 7.702s-3.367 7.702-7.696 7.702zm0-14.923c-1.925 0-3.85.722-5.05 2.166-1.443 1.444-2.165 3.13-2.165 5.055 0 4.1 3.367 7.22 7.216 7.22s7.215-3.37 7.215-7.22c.24-4.092-3.127-7.22-7.215-7.22zm17.798 30.56c-2.886 0-5.05-2.166-5.05-5.054s2.165-5.055 5.05-5.055c1.443 0 2.646.48 3.608 1.444s1.443 2.166 1.443 3.6c0 2.888-2.165 5.054-5.05 5.054zm0-9.628c-2.646 0-4.57 2.167-4.57 4.574s2.165 4.573 4.57 4.573c2.646 0 4.57-2.166 4.57-4.573 0-1.204-.48-2.407-1.443-3.37-.722-.722-1.924-1.204-3.127-1.204zm188.57-9.145c-.72 0-1.443-.24-2.405-.48-1.683-.722-2.886-1.925-3.608-3.37-.72-1.685-.72-3.37-.24-5.055.72-1.685 1.924-2.888 3.367-3.6 1.684-.722 3.367-.722 5.05-.24 3.367 1.204 5.05 5.055 3.848 8.424-.962 2.888-3.367 4.332-6.013 4.332zm-2.164-.722c3.127 1.204 6.734-.48 7.937-3.6s-.48-6.74-3.608-7.943c-1.443-.48-3.127-.48-4.57.24s-2.646 1.925-3.127 3.37-.48 3.13.24 4.573 1.443 2.888 3.127 3.37zm-12.026 11.794c-2.165 0-3.608-1.684-3.608-3.6s1.684-3.6 3.608-3.6 3.608 1.684 3.608 3.6c.24 1.926-1.444 3.6-3.608 3.6zm0-6.98c-1.924 0-3.368 1.444-3.368 3.37s1.444 3.37 3.368 3.37 3.367-1.444 3.367-3.37-1.443-3.37-3.367-3.37zm59.41-42.36h-22.128v.48h22.128v-.48zm4.8 6.5h-24.293v.48h24.293v-.48zm-318.45-25.033H72.403v.48h74.802v-.48zM167.9 56.832H87.795v.48h80.094v-.48zm308.83 39.23l-.24-.48c8.418-3.13 15.153-10.1 18.04-18.533l.48.24c-3.127 8.665-9.86 15.645-18.28 18.774zM90.44-.453H56.287v.48H90.44v-.48zm-27.178 101.57c-10.824 0-21.647-5.055-28.382-13.48l.24-.24c6.735 8.183 17.318 13.24 28.14 13.24h1.443v.48H63.26zm401.432 240.69H259.048v.48h205.646v-.48zm-173.416 33.7h-101.02v.48h101.02v-.48zm188.088-201.936h-.48v74.855h.48v-74.855zM77.213 262.38H.246v.48h76.967v-.48z"/></g><g clip-path="url(#D)"><path d="M165.934 242.6l-11.657-15.24c-.752-.753-1.692-1.13-2.632-1.13s-1.88.376-2.633 1.13a4.01 4.01 0 0 0 0 5.268l9.213 12.418-9.213 12.42a4.01 4.01 0 0 0 0 5.268c.752.753 1.692 1.13 2.633 1.13s1.88-.376 2.632-1.13l11.657-15.24c1.317-1.13 1.317-3.386 0-4.892z" fill="url(#A)"/><path d="M170.75 242.6l11.658-15.24c.752-.753 1.692-1.13 2.632-1.13s1.88.376 2.632 1.13a4.01 4.01 0 0 1 0 5.268l-9.213 12.418 9.213 12.42a4.01 4.01 0 0 1 0 5.268c-.752.753-1.692 1.13-2.632 1.13s-1.88-.376-2.632-1.13l-11.658-15.24c-1.316-1.13-1.316-3.386 0-4.892z" fill="url(#B)"/></g></g><defs><linearGradient id="A" x1="164.475" y1="222.219" x2="137.157" y2="253.312" gradientUnits="userSpaceOnUse"><stop offset=".104" stop-color="#7772f1"/><stop offset=".637" stop-color="#f52f6e"/><stop offset="1" stop-color="#ff5a30"/></linearGradient><linearGradient id="B" x1="188.659" y1="229.026" x2="164.295" y2="241.996" gradientUnits="userSpaceOnUse"><stop offset=".059" stop-color="#7772f1"/><stop offset=".53" stop-color="#2d7cf1"/><stop offset="1" stop-color="#00f0b5"/></linearGradient><clipPath id="C"><path fill="#fff" transform="matrix(-1 0 0 1 495 0)" d="M0 0h495v376H0z"/></clipPath><clipPath id="D"><path fill="#fff" transform="translate(146.706 223.91)" d="M0 0h42.217v42.247H0z"/></clipPath></defs></svg>