<svg width="1205" height="299" viewBox="0 0 1205 299" fill="none" xmlns="http://www.w3.org/2000/svg">
<path d="M141.095 62.7896L120.152 75.0188L112.05 79.7577V116.751C112.05 123.172 108.611 129.057 103.107 132.344L70.1648 151.605V185.235L132.152 149.082C137.655 145.872 141.095 139.911 141.095 133.49V62.7896Z" fill="#14DFB4"/>
<path d="M35.0828 76.8535L141.63 14.7898L119.236 1.71974C115.261 -0.573248 110.446 -0.573248 106.471 1.71974L6.03821 60.191C2.29299 62.4076 0 66.3821 0 70.7388V250.815C0 254.942 2.21656 258.764 5.80892 260.904L29.0446 274.509V87.4012C29.0446 83.0445 31.3376 79.07 35.0828 76.8535Z" fill="#082659"/>
<path d="M153.171 55.7572V142.509C153.171 147.706 150.42 152.598 145.91 155.197L70.1648 198.534L88.8145 209.54C95.6935 213.591 104.254 213.591 111.133 210.228L172.967 173.006C178.776 169.642 182.292 163.451 182.292 156.802L182.216 38.9419L153.171 55.7572Z" fill="#14DFB4"/>
<path d="M70.1644 185.235V151.605V111.63C70.1644 107.044 72.6102 102.764 76.5847 100.394L120.152 74.9422L141.094 62.7129L153.171 55.6811L182.139 38.8658L163.031 27.4008C157.374 23.9613 150.266 23.9613 144.534 27.2479L47.6166 83.6555C43.6421 85.9485 41.1962 90.2288 41.1962 94.8912V272.675C41.1962 278.178 44.1007 283.222 48.8395 285.974L70.2408 298.432V232.929V199.299V185.235H70.1644Z" fill="#082659"/>
<path d="M141.093 62.7896L120.151 74.9424L141.093 62.7896Z" fill="black"/>
<path d="M153.17 55.7583L181.068 39.478L153.17 55.7583Z" fill="black"/>
<g clip-path="url(#clip0)">
<path d="M254.497 197.851C252.985 197.851 251.759 196.625 251.759 195.112V101.111H329.091C350.572 101.111 361.312 110.785 361.312 130.133C361.312 148.901 350.572 158.187 329.091 158.187H273.24V197.851H254.497ZM273.24 140.774H329.091C336.179 140.774 339.831 137.485 339.831 131.101V128.198C339.831 121.814 336.179 118.524 329.091 118.524H273.24V140.774Z" fill="#082659"/>
<path d="M390.901 197.852C389.388 197.852 388.162 196.626 388.162 195.113V101.112H465.494C486.975 101.112 497.716 110.786 497.716 130.134C497.716 146.967 488.264 156.254 469.576 157.995C471.294 159.736 472.583 161.284 473.442 162.638L497.716 197.852H473.442L446.161 158.188H409.643V197.852H390.901ZM409.643 140.775H465.494C472.583 140.775 476.235 137.486 476.235 131.101V128.199C476.235 121.815 472.583 118.525 465.494 118.525H409.643V140.775Z" fill="#082659"/>
<path d="M517.052 149.483C517.052 134.972 522.422 122.783 532.733 113.496C543.258 104.016 556.791 99.1787 572.902 99.1787C589.013 99.1787 602.546 104.016 612.857 113.496C623.383 122.977 628.753 134.972 628.753 149.483C628.753 163.994 623.383 176.183 612.857 185.47C602.331 194.951 589.013 199.788 572.902 199.788C556.791 199.788 543.258 194.951 532.733 185.47C522.207 176.183 517.052 163.994 517.052 149.483ZM539.607 149.483C539.607 158.77 542.829 166.509 548.843 172.507C555.073 178.505 563.021 181.407 572.902 181.407C582.569 181.407 590.517 178.505 596.746 172.507C602.976 166.509 606.198 158.77 606.198 149.483C606.198 140.196 602.976 132.457 596.746 126.459C590.517 120.461 582.569 117.559 572.902 117.559C563.236 117.559 555.288 120.461 548.843 126.459C542.614 132.457 539.607 140.196 539.607 149.483Z" fill="#082659"/>
<path d="M650.372 171.565C650.214 170.061 651.457 168.831 652.969 168.831H671.712C671.712 177.924 681.808 182.374 701.785 182.374C721.763 182.374 731.859 177.731 731.859 168.251C731.859 160.898 721.548 157.222 700.926 157.222C668.49 157.222 652.379 147.935 652.379 129.555C652.379 109.24 668.919 99.1787 701.785 99.1787C716.607 99.1787 728.637 102.081 737.659 107.692C746.681 113.303 751.192 120.848 751.192 130.135H729.711C729.711 121.042 720.474 116.592 701.785 116.592C683.097 116.592 673.86 120.848 673.86 129.555C673.86 136.327 683.526 139.809 702.859 139.809C736.585 139.809 753.34 149.29 753.34 168.251C753.34 189.34 736.155 199.788 701.785 199.788C686.104 199.788 673.645 196.885 664.193 191.274C655.88 186.225 651.221 179.608 650.372 171.565Z" fill="#082659"/>
<path d="M774.962 171.565C774.803 170.061 776.046 168.831 777.558 168.831H796.301C796.301 177.924 806.397 182.374 826.375 182.374C846.352 182.374 856.448 177.731 856.448 168.251C856.448 160.898 846.137 157.222 825.515 157.222C793.079 157.222 776.968 147.935 776.968 129.555C776.968 109.24 793.509 99.1787 826.375 99.1787C841.197 99.1787 853.226 102.081 862.248 107.692C871.27 113.303 875.781 120.848 875.781 130.135H854.3C854.3 121.042 845.063 116.592 826.375 116.592C807.686 116.592 798.449 120.848 798.449 129.555C798.449 136.327 808.116 139.809 827.449 139.809C861.174 139.809 877.929 149.29 877.929 168.251C877.929 189.34 860.744 199.788 826.375 199.788C810.693 199.788 798.234 196.885 788.783 191.274C780.47 186.225 775.811 179.608 774.962 171.565Z" fill="#082659"/>
<path d="M926.262 101.112V197.852H907.519C906.007 197.852 904.781 196.626 904.781 195.113V101.112H926.262Z" fill="#082659"/>
<path d="M958.481 101.112H977.814L1011.32 141.743H1013.04L1046.55 101.112H1065.89V197.852H1047.14C1045.63 197.852 1044.41 196.626 1044.41 195.113V130.134H1043.98C1043.55 131.295 1043.12 132.456 1042.47 133.81C1040.97 136.712 1039.46 139.228 1037.96 140.969L1025.27 156.317C1023.78 158.115 1021.57 159.156 1019.24 159.156H1005.13C1002.79 159.156 1000.58 158.115 999.097 156.317L986.407 140.969C984.903 139.228 983.399 136.712 981.896 133.81C981.251 132.456 980.822 131.295 980.392 130.134H979.962V197.852H961.22C959.707 197.852 958.481 196.626 958.481 195.113V101.112Z" fill="#082659"/>
<path d="M1092.74 149.483C1092.74 134.972 1098.11 122.783 1108.42 113.496C1118.95 104.016 1132.48 99.1787 1148.59 99.1787C1164.7 99.1787 1178.23 104.016 1188.76 113.496C1199.29 122.977 1204.44 134.972 1204.44 149.483C1204.44 163.994 1199.07 176.183 1188.76 185.47C1178.23 194.951 1164.92 199.788 1148.59 199.788C1132.48 199.788 1118.95 194.951 1108.42 185.47C1097.9 176.183 1092.74 163.994 1092.74 149.483ZM1115.3 149.483C1115.3 158.77 1118.52 166.509 1124.53 172.507C1130.76 178.505 1138.71 181.407 1148.59 181.407C1158.26 181.407 1166.21 178.505 1172.65 172.507C1178.88 166.509 1181.89 158.77 1181.89 149.483C1181.89 140.196 1178.66 132.457 1172.65 126.459C1166.42 120.461 1158.47 117.559 1148.59 117.559C1138.92 117.559 1130.98 120.461 1124.53 126.459C1118.3 132.457 1115.3 140.196 1115.3 149.483Z" fill="#082659"/>
</g>
<defs>
<clipPath id="clip0">
<rect width="952.684" height="100.609" fill="white" transform="translate(251.759 99.1787)"/>
</clipPath>
</defs>
</svg>
