<svg xmlns="http://www.w3.org/2000/svg" width="56" height="56" fill="none" xmlns:v="https://vecta.io/nano"><path d="M0 4a4 4 0 0 1 4-4h48a4 4 0 0 1 4 4v48a4 4 0 0 1-4 4H4a4 4 0 0 1-4-4V4z" fill="#cf4547"/><path d="M22.1 19.82c0 .343-.082.614-.247.813s-.36.297-.585.297c-.206 0-.398-.1-.575-.327s-.375-.53-.594-.933c-.206-.366-.433-.632-.68-.796a1.43 1.43 0 0 0-.807-.246c-.45 0-.934.188-1.446.562s-1.02.87-1.522 1.483a16.22 16.22 0 0 0-1.446 2.107 21.96 21.96 0 0 0-1.223 2.427 17.43 17.43 0 0 0-.846 2.45c-.2.805-.314 1.53-.314 2.17a5.04 5.04 0 0 0 .044.658 2.23 2.23 0 0 0 .165.613 1.22 1.22 0 0 0 .329.452.78.78 0 0 0 .526.178c.238 0 .5-.08.812-.24a6.05 6.05 0 0 0 .942-.63 11.98 11.98 0 0 0 .982-.882l.918-.996.754-.968a5.63 5.63 0 0 0 .493-.807l.9-2.7c.1-.3.253-.496.43-.62a.94.94 0 0 1 .546-.183.84.84 0 0 1 .271.046.66.66 0 0 1 .241.144c.07.065.127.15.17.252a.96.96 0 0 1 .063.361 5.22 5.22 0 0 1-.097 1.031c-.065.32-.147.634-.247.94l-.334.92-.355.966c-.026.038-.072.158-.14.36l-.247.76-.314 1.024-.348 1.156-.343 1.157-.295 1.024-.217.768-.106.366a2.32 2.32 0 0 1-.155.407 2.74 2.74 0 0 1-.251.423 1.54 1.54 0 0 1-.319.332.59.59 0 0 1-.358.132c-.206 0-.356-.07-.45-.206s-.14-.4-.14-.756v-.16c0-.054.003-.1.01-.17.007-.122.055-.35.145-.688l.324-1.14.406-1.317.392-1.22-1.112 1.14a12.39 12.39 0 0 1-1.227 1.02c-.417.303-.84.548-1.267.738s-.835.286-1.227.286c-.45 0-.84-.1-1.165-.297s-.594-.46-.807-.78a3.52 3.52 0 0 1-.474-1.088 4.9 4.9 0 0 1-.155-1.214v-.15a.96.96 0 0 1 .01-.137 13.85 13.85 0 0 1 .314-2.256 18.16 18.16 0 0 1 .672-2.3 21.28 21.28 0 0 1 .962-2.239c.364-.73.76-1.418 1.2-2.066a16.18 16.18 0 0 1 1.368-1.792c.484-.546.98-1.016 1.5-1.408a7.1 7.1 0 0 1 1.542-.921 3.9 3.9 0 0 1 1.542-.332c.587 0 1.154.16 1.7.48s1.06.84 1.537 1.558c.1.16.18.323.207.487a2.73 2.73 0 0 1 .044.464zm24.25 8.134c-.07-.125-.178-.2-.32-.2-.07 0-.146.02-.223.057a2.17 2.17 0 0 0-.251.149l-2.18 1.917-1.46 1.214-.894.635c-.213.122-.374.183-.484.183-.136 0-.234-.027-.3-.086s-.087-.132-.087-.224c.007-.068.092-.2.257-.395l.6-.7.78-.928.773-1.047a7.41 7.41 0 0 0 .595-1.07c.158-.355.237-.7.237-1.003a1.23 1.23 0 0 0-.155-.624 1.42 1.42 0 0 0-.4-.447 1.83 1.83 0 0 0-.56-.269 2.24 2.24 0 0 0-.633-.092c-.3 0-.62.065-.928.194a4.97 4.97 0 0 0-.908.505 8.01 8.01 0 0 0-.861.693l-.773.773a1.6 1.6 0 0 0 .063-.217l.063-.315.048-.315.02-.217c0-.23-.058-.402-.174-.52s-.303-.178-.56-.178c-.167 0-.324.1-.468.27a3.16 3.16 0 0 0-.392.635l-.3.745-.213.585-.294.95a.43.43 0 0 0-.149.102l-.614.6-.72.653-.76.63-.735.54a5.13 5.13 0 0 1-.657.378c-.204.096-.373.144-.508.144-.1 0-.184-.034-.223-.103s-.058-.16-.058-.275a2.25 2.25 0 0 1 .101-.624l.208-.613.577-1.46.715-1.78.783-1.93.783-1.906.715-1.695.575-1.316.207-.492a1.29 1.29 0 0 0 .082-.436c0-.3-.082-.5-.247-.63a.86.86 0 0 0-.546-.194 1.12 1.12 0 0 0-.595.183c-.197.122-.353.332-.47.63l-3.567 9-.687 1.775a7.86 7.86 0 0 0-.324 1.04l-.24.192a5.13 5.13 0 0 1-.933.578c-.297.138-.545.206-.745.206-.284 0-.426-.137-.426-.412 0-.297.044-.62.13-.967s.196-.702.33-1.065l.43-1.07.43-1 .33-.825c.088-.24.13-.43.13-.567 0-.244-.068-.454-.203-.63s-.32-.263-.55-.263c-.213 0-.4.084-.532.252s-.268.377-.377.63a8.3 8.3 0 0 0-.305.825 6.54 6.54 0 0 1-.324.836 16.38 16.38 0 0 1-.653 1.288c-.26.47-.553.9-.875 1.317s-.674.75-1.054 1.024-.78.412-1.2.412a.34.34 0 0 1-.32-.172.76.76 0 0 1-.096-.378c.013-.328.068-.666.165-1.014a9.64 9.64 0 0 1 .348-1.024l.44-.973.822-1.598c.108-.2.177-.38.208-.5.02-.068.03-.14.03-.217a.59.59 0 0 0-.078-.304.68.68 0 0 0-.203-.217.94.94 0 0 0-.271-.126c-.098-.026-.2-.04-.28-.04a.97.97 0 0 0-.575.189c-.177.126-.333.335-.468.624l-1.227 2.806-.643 1.883c-.14.485-.22.84-.247 1.065l-.038.35c0 .328.045.6.135.818a1.37 1.37 0 0 0 .357.52 1.29 1.29 0 0 0 .517.274 2.32 2.32 0 0 0 .614.08 3.54 3.54 0 0 0 1.305-.235 4.27 4.27 0 0 0 1.083-.612c.323-.252.6-.53.86-.836a6.25 6.25 0 0 0 .629-.905c-.103.465-.155.874-.155 1.225 0 .497.097.848.3 1.054s.445.3.755.3.657-.086 1.044-.258.78-.4 1.18-.68l.34-.25.038.205a1.37 1.37 0 0 0 .227.516c.106.145.248.26.426.343s.398.126.663.126c.387 0 .785-.1 1.195-.274s.822-.43 1.237-.74a13.13 13.13 0 0 0 1.252-1.07l.065-.062-.205.47-1.04 2.28-1.064 2.296-.35.887a4.29 4.29 0 0 0-.145.475c-.038.16-.058.317-.058.47 0 .313.076.524.227.635s.343.166.576.166c.18 0 .343-.04.488-.12a1.36 1.36 0 0 0 .387-.32c.113-.134.213-.288.3-.464s.162-.363.227-.562a6.25 6.25 0 0 1 .136-.389l.247-.664.3-.802.304-.807.257-.67.16-.4.13-.292.208-.48.256-.573.267-.6.23-.515.165-.355.468-.876.6-.945a11.27 11.27 0 0 1 .715-.905 7.29 7.29 0 0 1 .783-.773c.267-.225.537-.404.812-.537s.54-.2.797-.2c.148 0 .255.026.32.08s.096.125.096.217c0 .154-.078.35-.233.596s-.35.513-.585.807l-.77.933-.783.973a9.38 9.38 0 0 0-.629.928c-.173.297-.274.56-.3.8a.65.65 0 0 0-.01.098v.086a1.07 1.07 0 0 0 .4.882c.266.214.646.32 1.136.32a3.68 3.68 0 0 0 1.47-.297c.458-.197.926-.478 1.406-.84s1-.796 1.532-1.3l1.846-1.672a1.28 1.28 0 0 0 .392-.515 1.54 1.54 0 0 0 .13-.607.93.93 0 0 0-.106-.464z" fill="#fff"/></svg>