<svg xmlns="http://www.w3.org/2000/svg" width="56" height="56" fill="none" xmlns:v="https://vecta.io/nano"><path fill-rule="evenodd" d="M28.007.055c15.438 0 27.94 12.514 27.94 27.94 0 15.438-12.514 27.94-27.94 27.94-15.438 0-27.94-12.514-27.94-27.94C.055 12.57 12.57.055 28.007.055z" fill="#c69"/><path d="M45.526 12.028C44.26 7.063 36.032 5.43 28.238 8.205 23.6 9.85 18.58 12.436 14.976 15.81c-4.285 4.013-4.978 7.508-4.693 8.964.993 5.155 8.053 8.515 10.95 11.018v.014c-.857.422-7.114 3.59-8.583 6.828-1.55 3.414.245 5.863 1.428 6.203 3.673 1.02 7.44-.816 9.467-3.836 1.96-2.91 1.795-6.68.938-8.556 1.17-.313 2.544-.45 4.27-.245 4.897.57 5.863 3.632 5.686 4.9-.2 1.28-1.21 1.986-1.55 2.203s-.45.286-.422.45c.04.23.204.218.5.177.408-.068 2.57-1.047 2.666-3.4.122-3.006-2.76-6.366-7.848-6.27-2.095.04-3.414.23-4.366.585-.068-.082-.136-.163-.218-.245-3.156-3.36-8.977-5.74-8.72-10.256.095-1.646.666-5.97 11.18-11.208 8.624-4.298 15.52-3.115 16.717-.5 1.7 3.74-3.686 10.705-12.65 11.712-3.414.38-5.2-.94-5.658-1.428-.476-.517-.544-.544-.72-.45-.286.163-.11.612 0 .884.272.694 1.36 1.93 3.237 2.544 1.646.544 5.645.843 10.5-1.034 5.455-2.136 9.698-7.984 8.447-12.854zM22.443 37.314c.408 1.5.367 2.91-.054 4.176-.04.136-.095.286-.15.422s-.122.272-.177.408a7.84 7.84 0 0 1-1.292 1.877c-1.62 1.768-3.9 2.435-4.87 1.877-1.047-.612-.53-3.1 1.36-5.1 2.027-2.136 4.938-3.523 4.938-3.523v-.014a1.03 1.03 0 0 0 .245-.122z" fill="#fff"/></svg>