<svg xmlns="http://www.w3.org/2000/svg" width="56" height="56" fill="none" xmlns:v="https://vecta.io/nano"><path d="M56 46.667C56 51.8 51.8 56 46.667 56H9.333C4.2 56 0 51.8 0 46.667V9.333C0 4.2 4.2 0 9.333 0h37.333C51.8 0 56 4.2 56 9.333v37.333z" fill="#563d7c"/><path d="M15.217 12.168h15.876c2.928 0 5.28.668 7.046 2.013s2.654 3.367 2.654 6.085c0 1.647-.403 3.056-1.208 4.228s-1.958 2.086-3.46 2.727v.09c2.013.43 3.54 1.382 4.575 2.855 1.034 1.482 1.556 3.33 1.556 5.563 0 1.28-.23 2.48-.686 3.587-.458 1.116-1.17 2.077-2.15 2.882s-2.224 1.446-3.752 1.922-3.34.714-5.445.714H15.217V12.168zm5.72 13.68h9.333c1.372 0 2.516-.384 3.43-1.17s1.373-1.903 1.373-3.367c0-1.647-.412-2.81-1.235-3.477s-2.013-1.006-3.57-1.006h-9.333v9.022zm0 14.32h10.11c1.738 0 3.093-.448 4.044-1.354.96-.897 1.446-2.178 1.446-3.825 0-1.62-.476-2.855-1.446-3.733s-2.306-1.3-4.044-1.3h-10.11v10.212z" fill="#fff"/></svg>