<svg xmlns="http://www.w3.org/2000/svg" width="56" height="56" fill="none" xmlns:v="https://vecta.io/nano"><path d="M34.453 56H1.64A1.64 1.64 0 0 1 0 54.359V8.422a1.64 1.64 0 0 1 1.641-1.641h19.687a1.64 1.64 0 0 1 1.641 1.641v37.734h11.484a1.64 1.64 0 0 1 1.641 1.641v6.563A1.64 1.64 0 0 1 34.453 56z" fill="url(#A)"/><path d="M45.962 13.51a4 4 0 0 1-3.473-3.473l-.817-6.534A4 4 0 0 0 37.703 0H21.547c-.92 0-1.64.722-1.64 1.64v45.937c0 .92.722 1.64 1.64 1.64H54.36c.92 0 1.64-.722 1.64-1.64v-29.28a4 4 0 0 0-3.504-3.969l-6.534-.817z" fill="url(#B)"/><path d="M42.875 14.766H56c0-.426-.164-.853-.492-1.148L42.383.492C42.088.164 41.66 0 41.234 0v13.125a1.64 1.64 0 0 0 1.641 1.641zm4.922 8.203H28.11a1.64 1.64 0 1 0 0 3.281h19.688a1.64 1.64 0 1 0 0-3.281zm0 9.844H28.11a1.64 1.64 0 1 0 0 3.281h19.688a1.64 1.64 0 1 0 0-3.281z" fill="url(#C)"/><defs><linearGradient id="A" x1="23.333" y1="42" x2="-15.167" y2="21" gradientUnits="userSpaceOnUse"><stop stop-color="#97dfff"/><stop offset=".811" stop-color="#e7f8ff"/></linearGradient><linearGradient id="B" x1="19.906" y1="49.219" x2="68.466" y2="25.152" gradientUnits="userSpaceOnUse"><stop stop-color="#007bff"/><stop offset="1" stop-color="#30bcf9"/></linearGradient><linearGradient id="C" x1="41.234" y1="36.094" x2="41.234" y2="0" gradientUnits="userSpaceOnUse"><stop stop-color="#97dfff"/><stop offset="1" stop-color="#e7f8ff"/></linearGradient></defs></svg>