<svg xmlns="http://www.w3.org/2000/svg" width="56" height="56" fill="none" xmlns:v="https://vecta.io/nano"><path d="M7.766 50.313L3.28 0H52.61l-4.484 50.313L27.89 56" fill="#e34f26"/><path d="M28 51.625l16.297-4.484 3.828-43.094H28" fill="#ef652a"/><path d="M28 22.75h-8.203l-.547-6.344H28V10.28H12.47l.11 1.64 1.53 17.063H28V22.75zm0 16.078h-.11L21 36.97l-.437-4.922h-6.125l.766 9.734 12.688 3.5H28v-6.453z" fill="#ebebeb"/><path d="M27.89 22.75v6.234h7.656l-.766 7.984-6.89 1.86v6.453l12.688-3.5.11-1.094L42.11 24.39l.22-1.64H27.89zm0-12.47v6.125h14.984l.11-1.312.328-3.172.11-1.64H27.89z" fill="#fff"/></svg>