<svg xmlns="http://www.w3.org/2000/svg" xmlns:xlink="http://www.w3.org/1999/xlink" width="56" height="56" fill="none" xmlns:v="https://vecta.io/nano"><g clip-path="url(#G)"><path d="M.79.568H6.93l1.127 1.995V32.68l-1.127 1.7H.79A.79.79 0 0 1 0 33.583V1.357A.79.79 0 0 1 .789.568z" fill="#007bff"/><path d="M4.17 34.37H.79A.79.79 0 0 1 0 33.582V1.357A.79.79 0 0 1 .789.568h3.38a.79.79 0 0 0-.789.789v32.225a.79.79 0 0 0 .789.789z" fill="#056ddd"/><path d="M56 1.357v32.225a.79.79 0 0 1-.789.789H49.07l-1.127-2.227V2.563L49.07.568h6.142a.79.79 0 0 1 .789.789z" fill="#007bff"/><path d="M6.93.568H49.07V34.37H6.93V.568z" fill="url(#A)"/><path d="M4.196 17.47c0 .467-.378.845-.845.845s-.845-.378-.845-.845.378-.845.845-.845.845.378.845.845z" fill="#eefaff"/><path d="M51.242 32.143v2.227H49.07l-1.127-2.227v-4.98c1.938.824 3.3 2.744 3.3 4.98z" fill="#056ddd"/><g fill="#30bcf9"><path d="M18.706 34.107l.353.266H7.227a4.88 4.88 0 0 1 2.448-1.78 9.88 9.88 0 0 1 3.06-.484 9.96 9.96 0 0 1 1.949.194l.048.01.038.01a9.93 9.93 0 0 1 3.935 1.785zm30.364-6.294v6.557H21.1V16.904a5.37 5.37 0 0 1 1.584-3.824 5.37 5.37 0 0 1 3.823-1.584c2.982 0 5.407 2.426 5.407 5.408v4.136c.337-.066.683-.1 1.033-.1 2.115 0 3.95 1.222 4.84 2.996.512-.157 1.05-.24 1.6-.24 2.214 0 4.12 1.337 4.957 3.246a5.39 5.39 0 0 1 1.482-.207c1.212 0 2.332.4 3.234 1.076z"/></g><path d="M45.835 28.924a3.22 3.22 0 0 0-3.219 3.219v-3.038a3.22 3.22 0 0 0-3.22-3.22c-.89 0-1.694.36-2.277.943a3.21 3.21 0 0 0-.943 2.277v-2.756a3.22 3.22 0 0 0-3.219-3.22c-.89 0-1.694.36-2.277.943s-.943 1.388-.943 2.277v-9.444a3.22 3.22 0 0 0-3.22-3.22 3.21 3.21 0 0 0-3.219 3.22V40.3l-5.9-4.45a7.7 7.7 0 0 0-3.094-1.397c-.007-.001-.013-.003-.02-.004-1.287-.26-2.64-.195-3.925.222-1.183.384-1.857 1.46-1.857 2.562a2.65 2.65 0 0 0 .767 1.867l14.077 14.395c1.21 1.24 2.87 1.937 4.604 1.937h16.823c2.37 0 4.293-1.922 4.293-4.293V32.143a3.22 3.22 0 0 0-3.22-3.219z" fill="url(#B)"/><path d="M26.517 13.684a3.21 3.21 0 0 0-3.219 3.22V40.3l1.956 1.473a.73.73 0 0 0 1.167-.582V16.904a3.21 3.21 0 0 1 .943-2.277c.21-.21.453-.393.716-.54a3.21 3.21 0 0 0-1.562-.404zm-.06 39.812L12.38 39.1c-.522-.535-.766-1.205-.766-1.867 0-1.102.674-2.18 1.857-2.562.27-.09.546-.16.822-.218l-.02-.004c-1.287-.26-2.64-.195-3.925.222-1.183.384-1.857 1.46-1.857 2.562a2.65 2.65 0 0 0 .767 1.867l14.077 14.395c1.21 1.24 2.87 1.937 4.604 1.937h3.123c-1.734 0-3.392-.698-4.604-1.937z" fill="url(#C)"/><path d="M36.177 33.63c-.467 0-.845-.378-.845-.845v-3.683c0-.467.378-.845.845-.845s.845.378.845.845v3.683c0 .467-.378.845-.845.845z" fill="url(#D)"/><path d="M29.738 33.526c-.467 0-.845-.378-.845-.845V26.35c0-.467.378-.845.845-.845s.845.378.845.845v6.332c0 .467-.378.845-.845.845z" fill="url(#E)"/><path d="M42.617 33.63c-.467 0-.845-.378-.845-.845v-1.84c0-.467.378-.845.845-.845s.845.378.845.845v1.84c0 .467-.378.845-.845.845z" fill="url(#F)"/><path d="M18.252 19.802c-.335 0-.652-.2-.784-.53a9.74 9.74 0 0 1-.703-3.65c0-5.398 4.392-9.8 9.8-9.8s9.8 4.392 9.8 9.8c0 1.227-.224 2.424-.667 3.557-.17.435-.66.65-1.094.48s-.65-.66-.48-1.094a8.06 8.06 0 0 0 .551-2.943 8.11 8.11 0 0 0-8.1-8.099 8.11 8.11 0 0 0-8.099 8.099 8.06 8.06 0 0 0 .581 3.02c.174.433-.036.925-.47 1.1-.103.04-.2.06-.315.06z" fill="#007bff"/></g><defs><linearGradient id="A" x1="28" y1="34.371" x2="28" y2=".568" xlink:href="#H"><stop stop-color="#97dfff"/><stop offset="1" stop-color="#e7f8ff"/></linearGradient><linearGradient id="B" x1="43.167" y1="15.166" x2="28.773" y2="55.432" xlink:href="#H"><stop offset=".012" stop-color="#ffeed5"/><stop offset="1" stop-color="#feb5a5"/></linearGradient><linearGradient id="C" x1="19.777" y1="13.684" x2="19.777" y2="55.432" xlink:href="#H"><stop stop-color="#ef8a74"/><stop offset="1" stop-color="#efa074"/></linearGradient><linearGradient id="D" x1="36.177" y1="28.258" x2="36.177" y2="33.631" xlink:href="#H"><stop stop-color="#ef8a74"/><stop offset="1" stop-color="#efa074"/></linearGradient><linearGradient id="E" x1="29.738" y1="25.504" x2="29.738" y2="33.526" xlink:href="#H"><stop stop-color="#ef8a74"/><stop offset="1" stop-color="#efa074"/></linearGradient><linearGradient id="F" x1="42.617" y1="30.1" x2="42.617" y2="33.631" xlink:href="#H"><stop stop-color="#ef8a74"/><stop offset="1" stop-color="#efa074"/></linearGradient><clipPath id="G"><path fill="#fff" d="M0 0h56v56H0z"/></clipPath><linearGradient id="H" gradientUnits="userSpaceOnUse"/></defs></svg>