<svg xmlns="http://www.w3.org/2000/svg" width="56" height="56" fill="none" xmlns:v="https://vecta.io/nano"><path d="M28 55.896c-.87 0-1.68-.205-2.435-.565l-7.7-4.057c-1.16-.565-.58-.77-.232-.873 1.565-.462 1.855-.565 3.478-1.386.174-.103.406-.05.58.05l5.913 3.132c.232.103.522.103.696 0l23.13-11.862c.232-.103.348-.308.348-.565V16.1c0-.257-.116-.462-.348-.565L28.3 3.723c-.232-.103-.522-.103-.696 0l-23.13 11.81c-.232.103-.348.36-.348.565v23.673c0 .205.116.462.348.565l6.32 3.235c3.42 1.54 5.565-.257 5.565-2.054V18.153c0-.308.3-.616.696-.616H20c.348 0 .696.257.696.616v23.365c0 4.057-2.493 6.42-6.84 6.42-1.333 0-2.377 0-5.333-1.284l-6.087-3.08C.928 42.802 0 41.364 0 39.823V16.15c0-1.54.928-2.978 2.435-3.75L25.565.54c1.45-.72 3.42-.72 4.87 0L53.565 12.4C55.073 13.172 56 14.6 56 16.15v23.673c0 1.54-.928 2.978-2.435 3.75l-23.13 11.862c-.754.308-1.623.462-2.435.462zm7.13-16.278c-10.145 0-12.232-4.108-12.232-7.6 0-.308.3-.616.696-.616h3.014c.348 0 .638.205.638.514.464 2.722 1.797 4.057 7.942 4.057 4.87 0 6.956-.976 6.956-3.286 0-1.335-.58-2.31-8.174-2.978-6.32-.565-10.26-1.797-10.26-6.265 0-4.16 3.942-6.624 10.55-6.624 7.42 0 11.072 2.26 11.536 7.19 0 .154-.058.308-.174.462-.116.103-.3.205-.464.205h-3.014c-.3 0-.58-.205-.638-.462-.696-2.824-2.493-3.75-7.246-3.75-5.333 0-5.97 1.643-5.97 2.876 0 1.49.754 1.95 7.942 2.773 7.13.822 10.493 2.003 10.493 6.42-.058 4.52-4.232 7.087-11.594 7.087z" fill="#539e43"/></svg>