<svg xmlns="http://www.w3.org/2000/svg" width="41" height="40" fill="none" xmlns:v="https://vecta.io/nano"><g clip-path="url(#A)" fill="#007bff"><path d="M37.1 10.306h-.343c-.2-1.72-1.585-3.085-3.316-3.252-.2-1.855-1.772-3.304-3.68-3.304H6.152a5.74 5.74 0 0 0-5.73 5.73v16.555c0 1.92 1.47 3.502 3.342 3.683a3.71 3.71 0 0 0 3.618 3.303 3.31 3.31 0 0 0 .148.937c.42 1.35 1.684 2.335 3.17 2.335h26.4c1.83 0 3.32-1.5 3.32-3.32V13.627c0-1.83-1.5-3.32-3.32-3.32zm1.76 3.32V26.42l-3.398-2.567a2.61 2.61 0 0 0-3.125-.027l-4.3 3.132-8.198-8.452a2.62 2.62 0 0 0-3.617-.141l-7.278 6.42V13.627a1.76 1.76 0 0 1 1.758-1.759h26.4a1.76 1.76 0 0 1 1.759 1.759zm0 19.344a1.76 1.76 0 0 1-1.758 1.759H10.7a1.76 1.76 0 0 1-1.679-1.236 1.75 1.75 0 0 1-.079-.522v-6.1l8.312-7.333a1.06 1.06 0 0 1 1.462.057L29.782 31a.78.78 0 1 0 1.122-1.088L29.136 28.1l4.12-3.002c.38-.277.888-.273 1.263.01l4.34 3.28v4.593zM5.305 29.32V10.876a2.25 2.25 0 0 1 .012-.233 2.28 2.28 0 0 1 2.265-2.044h9.556a.781.781 0 1 0 0-1.562H7.58c-2.117 0-3.84 1.722-3.84 3.84V28.14a2.14 2.14 0 0 1-1.758-2.105V9.48c0-2.298 1.87-4.168 4.168-4.168h23.6a2.14 2.14 0 0 1 2.097 1.724h-8.473a.781.781 0 1 0 0 1.563h9.696a2.14 2.14 0 0 1 2.094 1.707H10.7c-1.83 0-3.32 1.5-3.32 3.32v17.83a2.14 2.14 0 0 1-2.076-2.137zm25.47-14.27a3.35 3.35 0 0 0-3.343 3.343 3.35 3.35 0 0 0 3.343 3.343 3.35 3.35 0 0 0 3.343-3.343 3.35 3.35 0 0 0-3.343-3.343zm0 5.124c-.982 0-1.78-.8-1.78-1.78s.8-1.78 1.78-1.78 1.78.8 1.78 1.78-.8 1.78-1.78 1.78zM19.542 8.117c.02.047.044.092.072.135a.77.77 0 0 0 .097.119.82.82 0 0 0 .119.098.83.83 0 0 0 .135.072.82.82 0 0 0 .146.045.77.77 0 0 0 .152.015c.052 0 .102-.005.153-.015s.098-.025.146-.045a.8.8 0 0 0 .135-.072.83.83 0 0 0 .119-.098c.037-.036.07-.076.098-.12s.052-.088.072-.135a.85.85 0 0 0 .045-.146.8.8 0 0 0 .015-.153c0-.05-.005-.103-.015-.152s-.025-.1-.045-.146a.77.77 0 0 0-.072-.135.76.76 0 0 0-.098-.119.77.77 0 0 0-.119-.097.8.8 0 0 0-.135-.072.85.85 0 0 0-.146-.045.77.77 0 0 0-.306 0 .78.78 0 0 0-.146.045.83.83 0 0 0-.135.072.76.76 0 0 0-.119.097.66.66 0 0 0-.097.12 1.03 1.03 0 0 0-.072.135c-.02.047-.034.096-.044.146a.77.77 0 0 0-.016.152.79.79 0 0 0 .016.153c.01.05.025.098.044.146z"/></g><defs><clipPath id="A"><path fill="#fff" transform="translate(.5)" d="M0 0h40v40H0z"/></clipPath></defs></svg>