<svg xmlns="http://www.w3.org/2000/svg" xmlns:xlink="http://www.w3.org/1999/xlink" width="41" height="40" fill="none" xmlns:v="https://vecta.io/nano"><g clip-path="url(#A)" fill="#007bff"><path d="M10.176 5.596h-1.42c.214-1.583 1.1-1.663 1.492-1.7a.78.78 0 0 0 .71-.778V.78a.78.78 0 0 0-.245-.568.78.78 0 0 0-.58-.212C7.663.14 4.72 1.387 4.72 6.538v4.066a1.23 1.23 0 0 0 1.23 1.23h4.227a1.23 1.23 0 0 0 1.23-1.23V6.827a1.23 1.23 0 0 0-1.23-1.23zm-.332 4.676H6.28V6.538c0-3.595 1.6-4.598 3.113-4.882v.82c-1.046.318-2.25 1.26-2.25 3.9a.78.78 0 0 0 .781.781h1.92v3.113zm8.32-4.676H16.74c.214-1.583 1.1-1.663 1.492-1.7a.78.78 0 0 0 .71-.778V.78a.78.78 0 0 0-.244-.568.78.78 0 0 0-.58-.212c-2.47.14-5.413 1.386-5.413 6.537v4.066a1.23 1.23 0 0 0 1.23 1.23h4.227a1.23 1.23 0 0 0 1.23-1.23V6.827a1.23 1.23 0 0 0-1.23-1.23zm-.332 4.676h-3.563V6.538c0-3.595 1.6-4.598 3.113-4.882v.82c-1.046.318-2.25 1.26-2.25 3.9a.78.78 0 0 0 .781.781h1.92v3.113zm4.94-3.96a.79.79 0 0 0-.552-.23c-.205 0-.407.084-.552.23a.79.79 0 0 0-.23.552c0 .205.084.407.23.552a.79.79 0 0 0 .552.23c.205 0 .407-.084.552-.23a.79.79 0 0 0 .23-.552c0-.205-.084-.407-.23-.552zm3.845-.23h-.984a.781.781 0 1 0 0 1.563h.984A12.34 12.34 0 0 1 38.938 19.97c0 5.8-4.113 10.87-9.78 12.06a.78.78 0 0 0-.621.765v4.54l-4.812-4.812a.78.78 0 0 0-.552-.229h-8.787A12.34 12.34 0 0 1 2.063 19.969a12.33 12.33 0 0 1 1.546-5.98.781.781 0 1 0-1.365-.76C1.103 15.28.5 17.6.5 19.97c0 7.657 6.23 13.885 13.885 13.885h8.463l5.917 5.917a.78.78 0 0 0 1.333-.553v-5.806a13.94 13.94 0 0 0 7.25-4.636 13.91 13.91 0 0 0 3.151-8.807c0-7.656-6.23-13.885-13.885-13.885z"/><use xlink:href="#B"/><path d="M30.115 18.033h-19.23a.781.781 0 1 0 0 1.563h19.23a.781.781 0 1 0 0-1.562zm0 4.167h-19.23a.781.781 0 1 0 0 1.563h19.23a.781.781 0 1 0 0-1.562zm-.001 4.167h-10.25a.781.781 0 1 0 0 1.563h10.25a.781.781 0 1 0 0-1.562zm-14.644 0h-.013a.781.781 0 1 0 0 1.563h.013a.781.781 0 1 0 0-1.562z"/></g><defs><clipPath id="A"><path fill="#fff" transform="translate(.5)" d="M0 0h40v40H0z"/></clipPath><path id="B" d="M30.115 13.867h-19.23a.78.78 0 1 0 0 1.563h19.23a.78.78 0 1 0 0-1.562z"/></defs></svg>