<svg xmlns="http://www.w3.org/2000/svg" xmlns:xlink="http://www.w3.org/1999/xlink" width="41" height="40" fill="none" xmlns:v="https://vecta.io/nano"><g clip-path="url(#A)" fill="#007bff"><path d="M39.72 0H1.28A.78.78 0 0 0 .5.781V32.97a.78.78 0 0 0 .781.781h22.1l3.383 5.86a.78.78 0 0 0 .474.364c.067.018.134.027.202.027a.78.78 0 0 0 .391-.105l4.895-2.826a.78.78 0 0 0 .286-1.067l-1.3-2.252h8.017a.78.78 0 0 0 .781-.781V.78A.78.78 0 0 0 39.719 0zm-.78 1.563V6.25H2.063V1.563h36.875zm-11.22 36.59l-4.06-7.03a.78.78 0 0 0-.677-.391.78.78 0 0 0-.391.105l-1.31.756v-8.674l7.512 4.337-1.31.756a.78.78 0 0 0-.286 1.067l4.06 7.03-3.54 2.045zm3.083-5.964l-1.857-3.217 1.804-1.04a.78.78 0 0 0 0-1.353l-.836-.482h4.65a.78.78 0 0 0 .781-.781V14.688a.78.78 0 0 0-.781-.781H24.016a.78.78 0 1 0 0 1.563h9.766v9.062h-6.576l-6.314-3.645a.78.78 0 0 0-1.172.677v2.97H7.22V15.47h9.766a.78.78 0 1 0 0-1.563H6.438a.78.78 0 0 0-.781.781v10.625a.78.78 0 0 0 .781.781H19.72v6.094H2.063V7.813h36.875v24.375H30.8z"/><use xlink:href="#B"/><path d="M9.25 4.688c.205 0 .407-.084.552-.23a.79.79 0 0 0 .23-.552c0-.205-.084-.407-.23-.552a.79.79 0 0 0-.552-.23c-.205 0-.407.084-.552.23a.79.79 0 0 0-.23.552c0 .205.084.407.23.552a.79.79 0 0 0 .552.23zm3.75 0c.206 0 .407-.084.552-.23a.79.79 0 0 0 .23-.552c0-.205-.084-.407-.23-.552a.79.79 0 0 0-.552-.23c-.205 0-.407.084-.552.23a.79.79 0 0 0-.23.552c0 .205.084.407.23.552a.79.79 0 0 0 .552.23zm7.5 0h14.96a.781.781 0 1 0 0-1.562H20.5a.781.781 0 1 0 0 1.563zm0 9.218c-.206 0-.407.084-.552.23a.79.79 0 0 0-.23.552.78.78 0 0 0 .23.552c.147.145.347.23.552.23s.407-.084.552-.23a.79.79 0 0 0 .23-.552.78.78 0 0 0-.23-.552c-.147-.145-.347-.23-.552-.23z"/></g><defs><clipPath id="A"><path fill="#fff" transform="translate(.5)" d="M0 0h40v40H0z"/></clipPath><path id="B" d="M5.5 4.688c.205 0 .407-.084.552-.23s.23-.347.23-.552-.084-.407-.23-.552-.347-.23-.552-.23-.407.084-.552.23-.23.347-.23.552.084.407.23.552.347.23.552.23z"/></defs></svg>