<svg xmlns="http://www.w3.org/2000/svg" width="41" height="41" fill="none" xmlns:v="https://vecta.io/nano"><g clip-path="url(#A)" fill="#007bff"><path d="M39.72 7.502H28.244l-2.1-2.593a.78.78 0 0 0-.606-.288H15.47a.78.78 0 0 0-.606.288l-2.1 2.593H1.28a.78.78 0 0 0-.781.781V16.3a.78.78 0 0 0 .389.675l1.002.583V34.6a.78.78 0 0 0 .781.781h35.655a.78.78 0 0 0 .781-.781V17.55l1.003-.583a.78.78 0 0 0 .389-.675v-8.01a.78.78 0 0 0-.781-.781zm-23.876-1.32h9.315l1.073 1.32H14.77l1.073-1.32zM20.5 33.82H3.454V18.457l6.844 3.978a.78.78 0 0 0 .393.106h5.22v1.025a.78.78 0 0 0 .781.781h7.617a.78.78 0 0 0 .781-.781V22.54h5.22a.78.78 0 0 0 .393-.106l6.844-3.978V33.82H20.5zm-3.027-11.035v-2.05h6.055v2.05h-6.055zm21.465-6.944L30.1 20.98h-5v-1.025a.78.78 0 0 0-.781-.781H16.7a.78.78 0 0 0-.781.781v1.025H10.9l-8.84-5.137V9.065h36.875v6.777zM10.93 10.773h-.018a.782.782 0 1 0 0 1.563h.018a.781.781 0 1 0 0-1.562zm-2.263 0H4.68a.782.782 0 1 0 0 1.563h3.987a.781.781 0 1 0 0-1.562zM28.9 30.793h-.018a.782.782 0 1 0 0 1.563h.018a.781.781 0 1 0 0-1.562zm6.233 0h-3.987a.782.782 0 1 0 0 1.563h3.987a.781.781 0 1 0 0-1.562z"/></g><defs><clipPath id="A"><path fill="#fff" transform="translate(.5 .002)" d="M0 0h40v40H0z"/></clipPath></defs></svg>