<svg xmlns="http://www.w3.org/2000/svg" width="41" height="41" fill="none" xmlns:v="https://vecta.io/nano"><g clip-path="url(#A)" fill="#007bff"><path d="M28.297 31.48a.79.79 0 0 0-.553-.23c-.206 0-.407.084-.552.23a.79.79 0 0 0-.23.552.78.78 0 0 0 .23.552.79.79 0 0 0 .552.23.79.79 0 0 0 .783-.781c0-.205-.084-.407-.23-.552zm12.047-15.54a.78.78 0 0 0-.626-.313h-3.186V.783a.78.78 0 0 0-.781-.781H21.376a.78.78 0 0 0-.781.781V6.8h-8.057a.78.78 0 0 0-.781.781v8.047H8.86a.78.78 0 0 0-.749 1.002l4.608 15.625a.78.78 0 0 0 .749.56h10.82a.781.781 0 1 0 0-1.563H14.052L9.904 17.2h28.77l-4.148 14.063h-2.854a.782.782 0 1 0 0 1.563H35.1a.78.78 0 0 0 .749-.56l4.608-15.625a.78.78 0 0 0-.124-.689zm-14.526-.313h-12.5V8.36h12.5v7.266zm9.15 0h-7.6V7.58a.78.78 0 0 0-.781-.781h-4.443V1.564H34.97v14.063zm1.01 18.593H11.87L5.397 12.27a.78.78 0 0 0-.749-.56H1.28a.782.782 0 1 0 0 1.563h2.782l6.474 21.952a.78.78 0 0 0 .749.56h3.876a2.87 2.87 0 0 0-.324 1.328c0 1.594 1.297 2.9 2.9 2.9s2.9-1.297 2.9-2.9a2.87 2.87 0 0 0-.324-1.328h6.395a2.87 2.87 0 0 0-.325 1.328c0 1.594 1.297 2.9 2.9 2.9s2.9-1.297 2.9-2.9a2.87 2.87 0 0 0-.324-1.328h4.154a.781.781 0 1 0 0-1.562zM17.73 38.44a1.33 1.33 0 0 1-1.328-1.328 1.33 1.33 0 0 1 1.328-1.328 1.33 1.33 0 0 1 1.328 1.328 1.33 1.33 0 0 1-1.328 1.328zm11.527 0a1.33 1.33 0 0 1-1.328-1.328 1.33 1.33 0 0 1 1.328-1.328 1.33 1.33 0 0 1 1.328 1.328 1.33 1.33 0 0 1-1.328 1.328zm-9.135-18.756a.79.79 0 0 0-.553-.23.79.79 0 0 0-.552.229c-.145.145-.228.347-.228.552s.083.407.228.552a.79.79 0 0 0 .552.229.79.79 0 0 0 .553-.229c.145-.145.228-.347.228-.552s-.083-.407-.228-.552z"/><path d="M16.283 19.455H10.61a.78.78 0 1 0 0 1.563h5.672a.78.78 0 1 0 0-1.562z"/></g><defs><clipPath id="A"><path fill="#fff" transform="translate(.5 .002)" d="M0 0h40v40H0z"/></clipPath></defs></svg>